<svg width="80" height="80" viewBox="0 0 80 80" xmlns="http://www.w3.org/2000/svg" xmlns:xlink="http://www.w3.org/1999/xlink"><title>app-icon</title><defs><rect id="a" width="79.834" height="79.834" rx="4"/></defs><g fill="none" fill-rule="evenodd"><mask id="b" fill="#fff"><use xlink:href="#a"/></mask><use fill="#3D53C0" xlink:href="#a"/><g mask="url(#b)"><path d="M66.537 61.405c2.881 2.334 7.935 6.939 10.14 10.758 2.205 3.818 1.228 6.6-.273 7.467-1.5.866-3.83-1.111-6.35.344-2.52 1.455-3.922 4.55-2.035 7.82 1.887 3.267 5.222 4.294 8.077 2.646 2.856-1.649 2.746-4.244 4.252-5.113 1.506-.87 5.213 3.358 7.347 7.054C89.83 96.077 90.1 103.35 90.1 103.35l32.787-18.93s-7.532-5.384-10.682-10.84c-1.387-2.403-2.044-6.13-.218-7.184 1.826-1.054 4.96 1.123 7.62-.413 2.66-1.535 2.225-6.356.968-8.532-1.257-2.177-4.69-5.266-7.382-3.712-2.692 1.554-3.464 4.658-5.234 5.68-1.771 1.022-4.182-1.571-6.772-6.058-2.591-4.487-4.078-11.6-4.078-11.6s-5.44-.182-10.28 2.613c-2.262 1.306-3.524 2.267-2.667 3.75 1.491 2.583 4.207 3.142 5.629 5.604 1.034 1.79.625 4.878-2.042 6.418-3.247 1.875-5.714.492-7.034-1.795-1.095-1.897.215-4.324-1.78-6.098-2.696-2.4-7.995 1.944-12.397 9.152z" fill="#3D53C0"/><path d="M66.537 61.405c2.881 2.334 7.935 6.939 10.14 10.758 2.205 3.818 1.228 6.6-.273 7.467-1.5.866-3.83-1.111-6.35.344-2.52 1.455-3.922 4.55-2.035 7.82 1.887 3.267 5.222 4.294 8.077 2.646 2.856-1.649 2.746-4.244 4.252-5.113 1.506-.87 5.213 3.358 7.347 7.054C89.83 96.077 90.1 103.35 90.1 103.35l32.787-18.93s-7.532-5.384-10.682-10.84c-1.387-2.403-2.044-6.13-.218-7.184 1.826-1.054 4.96 1.123 7.62-.413 2.66-1.535 2.225-6.356.968-8.532-1.257-2.177-4.69-5.266-7.382-3.712-2.692 1.554-3.464 4.658-5.234 5.68-1.771 1.022-4.182-1.571-6.772-6.058-2.591-4.487-4.078-11.6-4.078-11.6s-5.44-.182-10.28 2.613c-2.262 1.306-3.524 2.267-2.667 3.75 1.491 2.583 4.207 3.142 5.629 5.604 1.034 1.79.625 4.878-2.042 6.418-3.247 1.875-5.714.492-7.034-1.795-1.095-1.897.215-4.324-1.78-6.098-2.696-2.4-7.995 1.944-12.397 9.152zM15.266-27.398c2.882 2.335 7.936 6.94 10.14 10.758 2.206 3.819 1.228 6.6-.272 7.467-1.5.866-3.83-1.11-6.35.344-2.52 1.455-3.922 4.551-2.035 7.82 1.887 3.268 5.222 4.294 8.077 2.646 2.855-1.649 2.746-4.244 4.252-5.113 1.506-.87 5.213 3.359 7.347 7.054 2.134 3.696 1.975 13.46 1.975 13.46s8.292-1.996 11.477-3.778c2.29-1.321 3.366-3.35 2.732-4.449-.992-1.718-4.092-2.305-5.435-4.63-1.896-3.286.48-6.92 2.019-7.809 3.59-2.072 7.22.847 8.196 2.292 1.864 3.229.34 3.691 1.894 6.383.898 1.555 1.814 1.2 3.314.113 6.07-4.4 8.974-7.565 8.974-7.565s-7.487-7.361-10.637-12.818c-1.388-2.403-2.144-4.835-.317-5.89 1.826-1.054 5.06-.17 7.719-1.706 2.66-1.536 2.8-5.36 1.543-7.536-1.257-2.177-4.69-5.266-7.382-3.712-2.692 1.554-3.464 4.658-5.234 5.68-1.77 1.022-4.757-2.567-7.348-7.055-2.59-4.487-2.581-11.904-2.581-11.904s-6.936.122-11.776 2.917c-2.263 1.306-3.524 2.267-2.668 3.75 1.492 2.584 4.208 3.142 5.63 5.604 1.033 1.791.625 4.879-2.042 6.418-3.247 1.875-5.714.492-7.034-1.795-1.095-1.896.214-4.324-1.78-6.097-2.697-2.4-7.995 1.943-12.398 9.151z" fill="#3D53C0"/><path d="M66.585 61.621s-3.364 3.229-6.767 5.193c-2.723 1.572-7.24 2.521-8.157.931-.642-1.112.204-2.952-1.624-6.117-1.363-2.361-4.88-4.281-8.149-2.394-3.269 1.887-3.926 4.93-2.334 7.686 1.591 2.757 4.254 2.695 5.286 4.483.807 1.398-.561 2.916-3.546 4.639-4.022 2.322-11.362.372-11.362.372s.825 7.777 3.643 12.66c2.819 4.881 5.79 8.552 7.88 7.346 2.09-1.206 2.38-2.869 4.392-4.03 2.012-1.162 5.884-1.857 8.432 2.556 2.058 3.564.524 5.794-1.504 6.965-3.833 2.213-5.531.535-7.536 1.693-1.306.753.284 4.47 1.394 6.393 3.816 6.608 10.782 12.05 10.782 12.05L90.107 103.3s.022-6.744-2.846-11.711c-2.867-4.967-6.142-6.71-7.07-6.174-.928.536-1.757 3.706-4 5.001-3.147 1.817-6.468.155-8.236-2.906-1.767-3.06-.546-5.81 2.114-7.346 2.66-1.536 4.877.273 6.367-.588 2.21-1.275 1.622-4.881.18-7.378-3.275-5.674-10.03-10.578-10.03-10.578z" fill="#3D53C0"/><path d="M66.585 61.621s-3.364 3.229-6.767 5.193c-2.723 1.572-7.24 2.521-8.157.931-.642-1.112.204-2.952-1.624-6.117-1.363-2.361-4.88-4.281-8.149-2.394-3.269 1.887-3.926 4.93-2.334 7.686 1.591 2.757 4.254 2.695 5.286 4.483.807 1.398-.561 2.916-3.546 4.639-4.022 2.322-11.362.372-11.362.372s.825 7.777 3.643 12.66c2.819 4.881 5.79 8.552 7.88 7.346 2.09-1.206 2.38-2.869 4.392-4.03 2.012-1.162 5.884-1.857 8.432 2.556 2.058 3.564.524 5.794-1.504 6.965-3.833 2.213-5.531.535-7.536 1.693-1.306.753.284 4.47 1.394 6.393 3.816 6.608 10.782 12.05 10.782 12.05L90.107 103.3s.022-6.744-2.846-11.711c-2.867-4.967-6.142-6.71-7.07-6.174-.928.536-1.757 3.706-4 5.001-3.147 1.817-6.468.155-8.236-2.906-1.767-3.06-.546-5.81 2.114-7.346 2.66-1.536 4.877.273 6.367-.588 2.21-1.275 1.622-4.881.18-7.378-3.275-5.674-10.03-10.578-10.03-10.578z" fill="#4D62DF"/><path d="M47.23-47.408s6.572.284 10.813-2.164c2.568-1.483 3.816-2.479 3.153-3.628-.663-1.148-3.153-1.595-4.457-3.854-2.339-4.05-1.096-7.501 1.464-8.98 2.561-1.478 6.278-.477 7.86 2.263 1.879 3.255-.158 5.733.777 7.354.67 1.16 5.014-.65 6.561-1.543 2.844-1.642 7.454-7.363 7.454-7.363s7.18 5.26 10.234 10.551c2.29 3.967 2.306 6.13 1.31 6.706-2.193 1.35-5.105.29-7.537 1.693-2.935 1.695-2.725 5.488-.967 8.533 1.757 3.044 5.684 3.76 8.022 2.411 2.338-1.35 1.688-4.275 4.477-5.716 1.512-.873 3.653 1.692 4.714 3.53 1.061 1.837 5.042 11.83 5.167 15.53-2.664.342-8.588.43-13.416 3.146-2.099 1.18-2.367 1.678-1.65 2.92 1.193 2.067 3.47 2.128 5.099 4.949.737 1.277 1.843 5.734-2.082 8-1.846 1.066-6.137.769-8.143-2.705-1.797-3.112-.613-4.492-1.463-5.965-.85-1.473-2.972-.431-4.928.647-4.757 2.622-8.156 8.558-8.156 8.558s-7.739-7.632-10.609-12.603c-2.45-4.243-1.14-5.58-.386-6.015 1.585-.915 4.681-.12 8.01-1.873 1.621-.935 3.201-3.967 1.291-7.275-1.91-3.31-4.878-5.112-7.396-3.659-2.404 1.389-3.732 4.796-4.814 5.42-1.975 1.14-5.04-2.266-7.643-6.774-2.603-4.508-2.76-12.094-2.76-12.094z" stroke="#233266" stroke-width="1.5" fill="#3D53C0"/><path d="M47.23-47.408s6.572.284 10.813-2.164c2.568-1.483 3.816-2.479 3.153-3.628-.663-1.148-3.153-1.595-4.457-3.854-2.339-4.05-1.096-7.501 1.464-8.98 2.561-1.478 6.278-.477 7.86 2.263 1.879 3.255-.158 5.733.777 7.354.67 1.16 5.014-.65 6.561-1.543 2.844-1.642 7.454-7.363 7.454-7.363s7.18 5.26 10.234 10.551c2.29 3.967 2.306 6.13 1.31 6.706-2.193 1.35-5.105.29-7.537 1.693-2.935 1.695-2.725 5.488-.967 8.533 1.757 3.044 5.684 3.76 8.022 2.411 2.338-1.35 1.688-4.275 4.477-5.716 1.512-.873 3.653 1.692 4.714 3.53 1.061 1.837 5.042 11.83 5.167 15.53-2.664.342-8.588.43-13.416 3.146-2.099 1.18-2.367 1.678-1.65 2.92 1.193 2.067 3.47 2.128 5.099 4.949.737 1.277 1.843 5.734-2.082 8-1.846 1.066-6.137.769-8.143-2.705-1.797-3.112-.613-4.492-1.463-5.965-.85-1.473-2.972-.431-4.928.647-4.757 2.622-8.156 8.558-8.156 8.558s-7.739-7.632-10.609-12.603c-2.45-4.243-1.14-5.58-.386-6.015 1.585-.915 4.681-.12 8.01-1.873 1.621-.935 3.201-3.967 1.291-7.275-1.91-3.31-4.878-5.112-7.396-3.659-2.404 1.389-3.732 4.796-4.814 5.42-1.975 1.14-5.04-2.266-7.643-6.774-2.603-4.508-2.76-12.094-2.76-12.094z" stroke="#233266" stroke-width="1.5" stroke-linecap="round" stroke-linejoin="round"/><path d="M-18.323-9.362s6.573.285 10.814-2.164c2.568-1.482 3.816-2.478 3.153-3.627-.663-1.149-3.153-1.595-4.457-3.855-1.974-3.419-.773-6.94 1.787-8.42 2.561-1.478 5.793-.61 7.375 2.13 1.879 3.254.004 5.307.94 6.927.669 1.16 2.165 1.547 3.712.654 5.314-3.068 10.302-9.56 10.302-9.56s7.18 5.261 10.234 10.552c2.29 3.966.869 6.734-.128 7.31-2.193 1.348-4.254-.953-6.685.45-2.936 1.695-3.608 5.209-2.177 7.687 1.757 3.044 4.911 4.943 8.934 2.62 2.338-1.35 1.684-3.75 3.858-4.874 1.511-.872 5.827 4.785 6.887 6.623 1.061 1.837 2.755 8.035 2.052 13.829-2.664.342-6.143-.53-10.97 2.187-2.1 1.18-2.368 1.678-1.652 2.92 1.194 2.068 3.471 2.128 5.1 4.95.737 1.276 1.843 5.734-2.082 8-1.846 1.066-6.138.768-8.143-2.705-1.797-3.113-.613-4.493-1.463-5.966-.85-1.472-2.972-.43-4.928.648-4.758 2.621-8.156 8.558-8.156 8.558S-1.755 27.88-4.625 22.909c-2.45-4.244-1.14-5.58-.386-6.015 1.584-.915 4.681-.12 8.01-1.873C4.62 14.085 6.2 11.054 4.29 7.745 2.38 4.436-.589 2.633-3.106 4.087-5.51 5.475-6.839 8.883-7.92 9.507c-1.974 1.14-5.04-2.267-7.642-6.775-2.603-4.508-2.76-12.094-2.76-12.094z" fill="#4D62DF"/><path d="M106.169-21.946s-8.182.072-13.311 3.034c-1.948 1.124-2.442 1.442-1.88 2.414 1.683 2.917 3.758 2.662 5.294 5.322 1.536 2.66.734 6.481-1.848 7.972-2.304 1.33-6.484.729-8.343-2.492-1.86-3.222-.525-4.312-1.426-5.873-.902-1.561-2.795-.77-5.243.643-4.556 2.717-7.936 8.45-7.936 8.45s8.705 8.062 11.625 13.119c.933 1.617 2.028 3.48 1.01 4.068-2.438 1.408-5.698.106-7.858 1.353-2.16 1.247-3.492 5.078-1.574 8.4 2.32 4.019 5.962 3.565 8.015 2.38 3.304-1.908 4.145-4.458 5.53-5.257 0 0 .921-.412 1.798 1.044 3.301 5.482 4.692 8.198 7.086 19.13 0 0 7.168-.151 12.04-2.965 3.2-1.903 3.662-3.669 3.257-4.54-.492-1.041-3.879-1.618-5.846-5.026-.921-1.596-2.415-6.148 1.985-8.689 3.034-1.809 6.976-.202 8.484 2.41 1.63 2.76 1.629 6.449 2.035 7.153.407.705 1.56.418 4.739-1.417 1.736-1.003 5.546-4.73 7.067-7.182-2.66-2.834-6.963-5.453-9.404-9.68-2.441-4.229-3.274-7.277-1.519-8.22 1.63-.876 3.905.787 6.96-.976 3.055-1.764 3.244-5.724 2.034-7.82-1.21-2.096-4.456-5.4-7.873-3.428-3.116 1.732-2.486 3.247-5.037 4.72-1.859 1.073-4.66-3.153-6.107-5.662-3.76-6.511-3.754-12.385-3.754-12.385z" fill="#3D53C0"/><path d="M106.169-21.946s-8.182.072-13.311 3.034c-1.948 1.124-2.442 1.442-1.88 2.414 1.683 2.917 3.758 2.662 5.294 5.322 1.536 2.66.734 6.481-1.848 7.972-2.304 1.33-6.484.729-8.343-2.492-1.86-3.222-.525-4.312-1.426-5.873-.902-1.561-2.795-.77-5.243.643-4.556 2.717-7.936 8.45-7.936 8.45s8.705 8.062 11.625 13.119c.933 1.617 2.028 3.48 1.01 4.068-2.438 1.408-5.698.106-7.858 1.353-2.16 1.247-3.492 5.078-1.574 8.4 2.32 4.019 5.962 3.565 8.015 2.38 3.304-1.908 4.145-4.458 5.53-5.257 0 0 .921-.412 1.798 1.044 3.301 5.482 4.692 8.198 7.086 19.13 0 0 7.168-.151 12.04-2.965 3.2-1.903 3.662-3.669 3.257-4.54-.492-1.041-3.879-1.618-5.846-5.026-.921-1.596-2.415-6.148 1.985-8.689 3.034-1.809 6.976-.202 8.484 2.41 1.63 2.76 1.629 6.449 2.035 7.153.407.705 1.56.418 4.739-1.417 1.736-1.003 5.546-4.73 7.067-7.182-2.66-2.834-6.963-5.453-9.404-9.68-2.441-4.229-3.274-7.277-1.519-8.22 1.63-.876 3.905.787 6.96-.976 3.055-1.764 3.244-5.724 2.034-7.82-1.21-2.096-4.456-5.4-7.873-3.428-3.116 1.732-2.486 3.247-5.037 4.72-1.859 1.073-4.66-3.153-6.107-5.662-3.76-6.511-3.754-12.385-3.754-12.385z" fill="#3D53C0"/><path d="M38.44 17.157s-5.898-.916-10.757 1.794c-1.948 1.125-2.865 1.716-2.304 2.688 1.422 2.577 3.813 2.671 5.35 5.332 1.535 2.66.987 6.124-1.595 7.614-2.304 1.33-6.574 1.149-8.434-2.073-1.86-3.221-.681-4.583-1.583-6.144-.9-1.561-3.31-.473-5.757.94-4.264 2.462-7.467 8.237-7.467 8.237s8.472 5.57 11.849 11.418c.933 1.617 2.497 4.624 1.48 5.212-2.439 1.408-5.699.106-7.859 1.353-2.16 1.247-3.492 5.078-1.574 8.4 2.32 4.019 5.963 3.565 8.016 2.38 3.304-1.908 4.145-4.458 5.529-5.257 0 0 1.287-.273 2.164 1.184 3.3 5.481 3.735 7.31 4.368 16.137 0 0 6.98 2.261 11.854-.553 3.2-1.903 3.661-3.668 3.256-4.54-.492-1.041-3.78-1.447-5.748-4.855-.92-1.596-.598-5.518 2.462-7.284 3.034-1.81 6.976-.202 8.484 2.41 1.63 2.759 1.118 5.675 1.525 6.38.407.704 4.207 1.056 7.386-.78 1.736-1.002 5.803-3.402 7.324-5.854-3.534-2.519-6.377-4.698-10.665-12.125-1.625-2.815-2.72-5.965-.965-6.908 1.631-.876 2.82-.285 5.876-2.049 3.055-1.763 2.667-6.132 1.456-8.228-1.21-2.096-3.99-5.121-7.407-3.149-4.722 2.495-3.691 4.99-5.55 6.064-1.858 1.072-5.632-4.557-7.08-7.066-3.76-6.511-3.633-10.678-3.633-10.678z" fill="#FFF"/><path d="M66.537 61.405s3.677-6.476 7.976-8.881c1.931-1.115 4.125-1.203 5.062.42.937 1.624.211 3.772 1.197 5.48 1.545 2.676 4.195 3.312 6.902 1.75 2.707-1.563 3.362-4.486 2.095-6.68-1.064-1.843-4.387-3.427-5.47-5.301-1.082-1.875.51-2.653 2.53-3.82 4.767-2.752 10.279-2.612 10.279-2.612s-2.15-10.53-4.534-14.66c-2.385-4.13-3.195-6.128-4.435-5.412-1.24.715-2.72 3.563-5.522 5.181-2.617 1.51-5.934 1.065-8.077-2.646-2.176-3.77.033-7.232 1.788-8.246 1.756-1.014 5.65-.036 7.782-1.267.977-.563-.116-2.47-1.607-5.052-2.65-4.589-11.02-12.254-11.02-12.254s-5.77 6-9.147 7.95c-1.566.904-2.375 1.006-3.245-.501-.87-1.507-.3-3.949-1.375-5.809-1.262-2.186-5.222-4.62-8.468-2.747-2.75 1.588-3.27 5.678-2.034 7.82 1.739 3.01 3.986 2.391 5.407 4.852.777 1.346-.785 3.111-3.259 4.54-2.473 1.428-10.941 3.543-10.941 3.543s.188 4.881 3.465 10.556c3.878 6.718 6.432 7.907 7.537 7.269 1.106-.639.96-3.574 5.198-6.021 3.3-1.905 5.954.49 7.338 2.886 1.384 2.396 1.71 6.731-1.157 8.386-2.867 1.656-5.683 1.626-6.47 2.406-1.106 1.1.097 4.91 2.749 8.951 3.43 5.226 7.278 8.944 9.456 9.919z" fill="#4D62DF"/></g></g></svg>