<svg width="61" height="61" viewBox="0 0 61 61" xmlns="http://www.w3.org/2000/svg" xmlns:xlink="http://www.w3.org/1999/xlink"><title>app-icon</title><defs><rect id="a" width="60.874" height="60.874" rx="4"/></defs><g fill="none" fill-rule="evenodd"><mask id="b" fill="#fff"><use xlink:href="#a"/></mask><use fill="#3D53C0" xlink:href="#a"/><g mask="url(#b)"><path d="M50.734 46.821c2.197 1.78 6.051 5.291 7.732 8.203 1.681 2.912.936 5.033-.208 5.694-1.144.66-2.92-.847-4.842.262-1.921 1.11-2.99 3.47-1.551 5.962 1.438 2.492 3.981 3.275 6.158 2.018 2.178-1.257 2.094-3.235 3.242-3.898 1.149-.663 3.975 2.56 5.603 5.379 1.627 2.818 1.832 8.363 1.832 8.363l25-14.434s-5.742-4.105-8.144-8.265c-1.058-1.833-1.56-4.674-.167-5.478 1.393-.804 3.783.856 5.81-.315 2.029-1.17 1.697-4.846.739-6.506-.959-1.66-3.577-4.015-5.63-2.83-2.052 1.185-2.64 3.551-3.99 4.33-1.35.78-3.189-1.197-5.164-4.618-1.975-3.422-3.11-8.845-3.11-8.845s-4.147-.139-7.837 1.992c-1.726.996-2.688 1.729-2.035 2.86 1.138 1.97 3.209 2.395 4.293 4.273.788 1.365.476 3.72-1.557 4.893-2.476 1.43-4.357.375-5.364-1.368-.835-1.447.164-3.298-1.356-4.65-2.057-1.83-6.097 1.482-9.454 6.978z" fill="#3D53C0"/><path d="M50.734 46.821c2.197 1.78 6.051 5.291 7.732 8.203 1.681 2.912.936 5.033-.208 5.694-1.144.66-2.92-.847-4.842.262-1.921 1.11-2.99 3.47-1.551 5.962 1.438 2.492 3.981 3.275 6.158 2.018 2.178-1.257 2.094-3.235 3.242-3.898 1.149-.663 3.975 2.56 5.603 5.379 1.627 2.818 1.832 8.363 1.832 8.363l25-14.434s-5.742-4.105-8.144-8.265c-1.058-1.833-1.56-4.674-.167-5.478 1.393-.804 3.783.856 5.81-.315 2.029-1.17 1.697-4.846.739-6.506-.959-1.66-3.577-4.015-5.63-2.83-2.052 1.185-2.64 3.551-3.99 4.33-1.35.78-3.189-1.197-5.164-4.618-1.975-3.422-3.11-8.845-3.11-8.845s-4.147-.139-7.837 1.992c-1.726.996-2.688 1.729-2.035 2.86 1.138 1.97 3.209 2.395 4.293 4.273.788 1.365.476 3.72-1.557 4.893-2.476 1.43-4.357.375-5.364-1.368-.835-1.447.164-3.298-1.356-4.65-2.057-1.83-6.097 1.482-9.454 6.978zM11.64-20.89c2.198 1.78 6.052 5.29 7.733 8.202 1.68 2.912.936 5.033-.208 5.694-1.145.66-2.921-.847-4.843.262-1.921 1.11-2.99 3.47-1.55 5.962 1.438 2.492 3.98 3.275 6.158 2.018 2.177-1.257 2.094-3.235 3.242-3.898 1.148-.663 3.975 2.56 5.602 5.379C29.401 5.547 29.28 12.99 29.28 12.99s6.323-1.522 8.751-2.88c1.746-1.008 2.567-2.555 2.083-3.392-.756-1.31-3.12-1.758-4.143-3.532-1.447-2.504.365-5.276 1.538-5.953 2.738-1.58 5.506.646 6.25 1.747 1.422 2.462.26 2.815 1.444 4.867.685 1.186 1.384.915 2.527.087 4.63-3.356 6.843-5.769 6.843-5.769s-5.709-5.613-8.111-9.774c-1.058-1.832-1.634-3.686-.242-4.49 1.393-.804 3.858-.13 5.886-1.302 2.028-1.17 2.135-4.086 1.177-5.746-.958-1.66-3.577-4.015-5.629-2.83-2.052 1.185-2.641 3.551-3.991 4.33-1.35.78-3.627-1.957-5.602-5.378-1.976-3.422-1.969-9.077-1.969-9.077s-5.289.093-8.979 2.224c-1.725.996-2.687 1.729-2.034 2.86 1.137 1.97 3.208 2.395 4.292 4.273.788 1.365.477 3.72-1.556 4.893-2.476 1.43-4.357.376-5.364-1.368-.835-1.447.164-3.298-1.357-4.65-2.056-1.83-6.097 1.482-9.453 6.978z" fill="#3D53C0"/><path d="M50.771 46.986s-2.565 2.462-5.16 3.96c-2.076 1.199-5.52 1.922-6.22.71-.49-.849.156-2.251-1.237-4.665-1.04-1.8-3.722-3.264-6.214-1.825-2.493 1.439-2.994 3.758-1.78 5.86 1.213 2.103 3.244 2.056 4.03 3.419.616 1.066-.428 2.223-2.703 3.537-3.067 1.77-8.664.284-8.664.284s.629 5.93 2.778 9.653c2.15 3.722 4.415 6.521 6.009 5.601 1.593-.92 1.815-2.187 3.349-3.073 1.534-.885 4.486-1.416 6.429 1.95 1.569 2.717.4 4.417-1.147 5.31-2.923 1.687-4.218.408-5.746 1.29-.996.576.216 3.409 1.063 4.876 2.91 5.039 8.22 9.187 8.22 9.187l24.929-14.293s.016-5.143-2.17-8.93c-2.187-3.787-4.684-5.116-5.392-4.707-.707.408-1.34 2.825-3.05 3.813-2.4 1.385-4.931.118-6.279-2.216-1.347-2.333-.417-4.43 1.612-5.6 2.029-1.172 3.718.207 4.855-.45 1.684-.972 1.236-3.721.137-5.625-2.498-4.327-7.649-8.066-7.649-8.066z" fill="#3D53C0"/><path d="M50.771 46.986s-2.565 2.462-5.16 3.96c-2.076 1.199-5.52 1.922-6.22.71-.49-.849.156-2.251-1.237-4.665-1.04-1.8-3.722-3.264-6.214-1.825-2.493 1.439-2.994 3.758-1.78 5.86 1.213 2.103 3.244 2.056 4.03 3.419.616 1.066-.428 2.223-2.703 3.537-3.067 1.77-8.664.284-8.664.284s.629 5.93 2.778 9.653c2.15 3.722 4.415 6.521 6.009 5.601 1.593-.92 1.815-2.187 3.349-3.073 1.534-.885 4.486-1.416 6.429 1.95 1.569 2.717.4 4.417-1.147 5.31-2.923 1.687-4.218.408-5.746 1.29-.996.576.216 3.409 1.063 4.876 2.91 5.039 8.22 9.187 8.22 9.187l24.929-14.293s.016-5.143-2.17-8.93c-2.187-3.787-4.684-5.116-5.392-4.707-.707.408-1.34 2.825-3.05 3.813-2.4 1.385-4.931.118-6.279-2.216-1.347-2.333-.417-4.43 1.612-5.6 2.029-1.172 3.718.207 4.855-.45 1.684-.972 1.236-3.721.137-5.625-2.498-4.327-7.649-8.066-7.649-8.066z" fill="#4D62DF"/><path d="M36.013-36.149s5.011.217 8.245-1.65c1.958-1.13 2.91-1.89 2.404-2.766-.505-.875-2.404-1.216-3.399-2.939-1.783-3.088-.835-5.72 1.117-6.846 1.953-1.128 4.787-.364 5.993 1.725 1.433 2.481-.12 4.371.593 5.607.51.884 3.823-.495 5.002-1.176 2.17-1.252 5.684-5.615 5.684-5.615s5.474 4.011 7.804 8.046c1.746 3.024 1.758 4.674.998 5.113-1.672 1.028-3.892.22-5.747 1.29-2.238 1.293-2.078 4.186-.737 6.507 1.34 2.321 4.334 2.868 6.117 1.838 1.783-1.029 1.287-3.26 3.414-4.358 1.152-.665 2.785 1.29 3.594 2.691.809 1.401 3.845 9.021 3.94 11.842-2.031.26-6.549.328-10.23 2.399-1.6.9-1.805 1.28-1.259 2.226.91 1.577 2.647 1.623 3.889 3.774.562.974 1.405 4.372-1.588 6.1-1.408.813-4.68.586-6.209-2.062-1.37-2.373-.467-3.426-1.115-4.549-.649-1.123-2.266-.329-3.758.494-3.627 1.999-6.219 6.525-6.219 6.525s-5.9-5.82-8.089-9.61c-1.868-3.235-.87-4.254-.294-4.586 1.208-.698 3.569-.092 6.108-1.428 1.235-.714 2.44-3.025.984-5.548-1.457-2.523-3.72-3.897-5.64-2.79-1.833 1.06-2.846 3.658-3.671 4.134-1.505.87-3.843-1.729-5.827-5.166-1.985-3.438-2.104-9.222-2.104-9.222z" stroke="#233266" stroke-width="1.5" fill="#3D53C0"/><path d="M36.013-36.149s5.011.217 8.245-1.65c1.958-1.13 2.91-1.89 2.404-2.766-.505-.875-2.404-1.216-3.399-2.939-1.783-3.088-.835-5.72 1.117-6.846 1.953-1.128 4.787-.364 5.993 1.725 1.433 2.481-.12 4.371.593 5.607.51.884 3.823-.495 5.002-1.176 2.17-1.252 5.684-5.615 5.684-5.615s5.474 4.011 7.804 8.046c1.746 3.024 1.758 4.674.998 5.113-1.672 1.028-3.892.22-5.747 1.29-2.238 1.293-2.078 4.186-.737 6.507 1.34 2.321 4.334 2.868 6.117 1.838 1.783-1.029 1.287-3.26 3.414-4.358 1.152-.665 2.785 1.29 3.594 2.691.809 1.401 3.845 9.021 3.94 11.842-2.031.26-6.549.328-10.23 2.399-1.6.9-1.805 1.28-1.259 2.226.91 1.577 2.647 1.623 3.889 3.774.562.974 1.405 4.372-1.588 6.1-1.408.813-4.68.586-6.209-2.062-1.37-2.373-.467-3.426-1.115-4.549-.649-1.123-2.266-.329-3.758.494-3.627 1.999-6.219 6.525-6.219 6.525s-5.9-5.82-8.089-9.61c-1.868-3.235-.87-4.254-.294-4.586 1.208-.698 3.569-.092 6.108-1.428 1.235-.714 2.44-3.025.984-5.548-1.457-2.523-3.72-3.897-5.64-2.79-1.833 1.06-2.846 3.658-3.671 4.134-1.505.87-3.843-1.729-5.827-5.166-1.985-3.438-2.104-9.222-2.104-9.222z" stroke="#233266" stroke-width="1.5" stroke-linecap="round" stroke-linejoin="round"/><path d="M-13.971-7.138s5.012.217 8.246-1.65c1.957-1.13 2.91-1.89 2.404-2.766-.506-.876-2.404-1.217-3.4-2.94-1.504-2.606-.589-5.292 1.364-6.42 1.953-1.127 4.416-.465 5.623 1.624 1.432 2.482.003 4.047.716 5.282.511.885 1.652 1.18 2.831.5 4.052-2.34 7.855-7.29 7.855-7.29s5.475 4.01 7.804 8.045c1.746 3.024.663 5.135-.098 5.574-1.672 1.028-3.243-.727-5.097.344-2.239 1.292-2.751 3.97-1.66 5.86 1.34 2.322 3.745 3.77 6.812 1.998 1.783-1.029 1.284-2.86 2.942-3.716 1.152-.665 4.443 3.649 5.252 5.05.809 1.4 2.1 6.127 1.564 10.544-2.032.261-4.684-.403-8.365 1.668-1.6.9-1.806 1.28-1.26 2.226.911 1.577 2.647 1.624 3.89 3.774.561.974 1.405 4.373-1.588 6.1-1.408.814-4.68.587-6.21-2.062-1.37-2.373-.466-3.425-1.115-4.548-.648-1.123-2.266-.33-3.757.493-3.628 2-6.22 6.526-6.22 6.526s-5.9-5.82-8.088-9.61c-1.868-3.236-.87-4.255-.295-4.587 1.208-.697 3.57-.091 6.108-1.428 1.236-.713 2.44-3.025.984-5.547-1.456-2.523-3.72-3.898-5.64-2.79-1.833 1.059-2.845 3.657-3.67 4.133-1.506.87-3.843-1.728-5.828-5.166-1.984-3.437-2.104-9.221-2.104-9.221z" fill="#4D62DF"/><path d="M80.954-16.734s-6.239.055-10.15 2.313c-1.485.858-1.862 1.1-1.434 1.841 1.284 2.224 2.866 2.03 4.037 4.059 1.171 2.028.56 4.941-1.408 6.078-1.758 1.014-4.944.556-6.363-1.9-1.418-2.457-.4-3.288-1.087-4.479-.687-1.19-2.13-.587-3.997.49C57.078-6.258 54.5-1.887 54.5-1.887s6.637 6.147 8.863 10.003c.712 1.233 1.547 2.654.77 3.102-1.859 1.074-4.344.08-5.991 1.032-1.648.95-2.663 3.872-1.2 6.405 1.769 3.064 4.546 2.718 6.111 1.814 2.52-1.454 3.16-3.399 4.216-4.008 0 0 .703-.314 1.372.796 2.517 4.18 3.578 6.25 5.403 14.587 0 0 5.465-.115 9.181-2.26 2.44-1.452 2.792-2.798 2.483-3.463-.375-.794-2.958-1.234-4.458-3.832-.702-1.217-1.841-4.688 1.514-6.625 2.313-1.38 5.319-.154 6.469 1.837 1.242 2.104 1.242 4.917 1.552 5.455.31.537 1.189.318 3.613-1.081 1.324-.765 4.229-3.606 5.389-5.477-2.028-2.16-5.31-4.157-7.17-7.38-1.862-3.225-2.498-5.55-1.159-6.268 1.243-.668 2.978.6 5.307-.745 2.33-1.344 2.474-4.364 1.55-5.962-.922-1.598-3.397-4.118-6.002-2.614-2.376 1.321-1.896 2.476-3.841 3.599-1.417.818-3.553-2.404-4.657-4.317-2.867-4.965-2.862-9.444-2.862-9.444z" fill="#3D53C0"/><path d="M80.954-16.734s-6.239.055-10.15 2.313c-1.485.858-1.862 1.1-1.434 1.841 1.284 2.224 2.866 2.03 4.037 4.059 1.171 2.028.56 4.941-1.408 6.078-1.758 1.014-4.944.556-6.363-1.9-1.418-2.457-.4-3.288-1.087-4.479-.687-1.19-2.13-.587-3.997.49C57.078-6.258 54.5-1.887 54.5-1.887s6.637 6.147 8.863 10.003c.712 1.233 1.547 2.654.77 3.102-1.859 1.074-4.344.08-5.991 1.032-1.648.95-2.663 3.872-1.2 6.405 1.769 3.064 4.546 2.718 6.111 1.814 2.52-1.454 3.16-3.399 4.216-4.008 0 0 .703-.314 1.372.796 2.517 4.18 3.578 6.25 5.403 14.587 0 0 5.465-.115 9.181-2.26 2.44-1.452 2.792-2.798 2.483-3.463-.375-.794-2.958-1.234-4.458-3.832-.702-1.217-1.841-4.688 1.514-6.625 2.313-1.38 5.319-.154 6.469 1.837 1.242 2.104 1.242 4.917 1.552 5.455.31.537 1.189.318 3.613-1.081 1.324-.765 4.229-3.606 5.389-5.477-2.028-2.16-5.31-4.157-7.17-7.38-1.862-3.225-2.498-5.55-1.159-6.268 1.243-.668 2.978.6 5.307-.745 2.33-1.344 2.474-4.364 1.55-5.962-.922-1.598-3.397-4.118-6.002-2.614-2.376 1.321-1.896 2.476-3.841 3.599-1.417.818-3.553-2.404-4.657-4.317-2.867-4.965-2.862-9.444-2.862-9.444z" fill="#3D53C0"/><path d="M29.311 13.082s-4.498-.699-8.203 1.368c-1.485.858-2.184 1.309-1.757 2.05 1.085 1.964 2.908 2.037 4.08 4.065 1.17 2.028.753 4.67-1.216 5.806-1.757 1.015-5.013.876-6.431-1.58-1.418-2.457-.52-3.495-1.207-4.686-.687-1.19-2.523-.36-4.39.717-3.252 1.878-5.693 6.28-5.693 6.28s6.46 4.248 9.034 8.707c.712 1.233 1.904 3.526 1.128 3.975-1.859 1.073-4.345.08-5.992 1.03-1.647.952-2.662 3.873-1.2 6.406 1.77 3.064 4.547 2.718 6.112 1.814 2.52-1.454 3.16-3.399 4.216-4.008 0 0 .981-.208 1.65.903 2.517 4.18 2.848 5.574 3.331 12.305 0 0 5.322 1.724 9.038-.422 2.44-1.45 2.792-2.797 2.483-3.462-.375-.794-2.882-1.103-4.382-3.702-.703-1.217-.456-4.207 1.877-5.554 2.313-1.38 5.319-.154 6.468 1.837 1.243 2.104.853 4.328 1.164 4.865.31.537 3.207.806 5.631-.594 1.324-.764 4.425-2.594 5.585-4.464-2.695-1.92-4.863-3.582-8.132-9.245-1.24-2.147-2.074-4.548-.736-5.267 1.244-.669 2.151-.218 4.48-1.562 2.33-1.345 2.034-4.677 1.11-6.275-.922-1.598-3.042-3.905-5.647-2.4-3.601 1.902-2.815 3.805-4.232 4.623-1.417.818-4.294-3.475-5.398-5.388-2.867-4.965-2.77-8.142-2.77-8.142z" fill="#FFF"/><path d="M50.734 46.821s2.804-4.937 6.082-6.772c1.473-.85 3.145-.917 3.86.321.714 1.238.16 2.876.913 4.179 1.177 2.04 3.198 2.525 5.262 1.333 2.064-1.191 2.564-3.42 1.598-5.093-.811-1.405-3.345-2.613-4.17-4.042-.826-1.43.388-2.023 1.928-2.912 3.635-2.1 7.838-1.992 7.838-1.992s-1.64-8.029-3.457-11.178c-1.819-3.15-2.437-4.673-3.382-4.127-.946.545-2.074 2.717-4.21 3.95-1.996 1.152-4.525.813-6.16-2.017-1.659-2.875.026-5.515 1.364-6.288 1.34-.773 4.309-.027 5.934-.966.745-.43-.088-1.883-1.225-3.852-2.02-3.499-8.403-9.344-8.403-9.344s-4.4 4.575-6.975 6.062c-1.194.69-1.81.767-2.474-.382-.663-1.149-.23-3.01-1.048-4.429-.963-1.667-3.983-3.524-6.457-2.095-2.097 1.21-2.494 4.33-1.551 5.962 1.326 2.297 3.039 1.824 4.122 3.7.593 1.027-.598 2.373-2.484 3.462-1.886 1.089-8.343 2.702-8.343 2.702s.144 3.722 2.642 8.049c2.957 5.122 4.904 6.029 5.747 5.542.843-.487.732-2.724 3.964-4.59 2.516-1.453 4.54.372 5.595 2.2 1.055 1.827 1.304 5.133-.882 6.395-2.186 1.262-4.334 1.239-4.933 1.834-.844.838.073 3.745 2.095 6.825 2.616 3.985 5.55 6.82 7.21 7.563z" fill="#4D62DF"/></g></g></svg>