<svg width="16" height="16" viewBox="0 0 16 16" xmlns="http://www.w3.org/2000/svg"><title>Shape</title><path d="M6.344 0L5.281 1c-.19-.014-.37.017-.563.031V1L3.655.094 2.467.563l-.094 1.406a4.095 4.095 0 0 0-.406.406l-1.469.031-.5 1.25 1 1.063c-.014.19.017.37.031.563H.998L.092 6.345l.469 1.156 1.406.125c.126.146.263.281.406.406l.031 1.469 1.25.5L4.717 8.97c.19.014.37.014.563 0l1.063.938 1.156-.469.125-1.406c.14-.122.255-.269.375-.406l1.5-.031.5-1.25-1.031-1.063c.014-.19.013-.37 0-.563l.938-1.063-.469-1.188-1.406-.094a4.095 4.095 0 0 0-.406-.406L7.594.5 6.344 0zM5 3.094a1.93 1.93 0 0 1 1.75 1.188 1.89 1.89 0 0 1-1.031 2.469 1.89 1.89 0 1 1-1.438-3.5c.242-.1.473-.158.719-.156v-.001zM11.5 8L11 9c-.145.048-.271.089-.406.156L9.5 8.75l-.75.75.406 1.094c-.068.135-.108.261-.156.406l-1 .5v1l1 .5c.048.145.089.271.156.406L8.75 14.5l.75.75 1.094-.406c.135.068.261.108.406.156l.5 1h1l.5-1c.145-.048.271-.089.406-.156l1.094.406.75-.75-.406-1.094c.068-.135.108-.261.156-.406l1-.5v-1l-1-.5c-.048-.145-.089-.271-.156-.406L15.25 9.5l-.75-.75-1.094.406c-.135-.068-.261-.108-.406-.156l-.5-1h-1zm.5 2.5a1.5 1.5 0 1 1-.001 3.001A1.5 1.5 0 0 1 12 10.5z" fill="#000" fill-rule="evenodd"/></svg>