<svg width="89" height="89" viewBox="0 0 89 89" xmlns="http://www.w3.org/2000/svg"><title>user-3</title><g transform="translate(2 2)" fill="none" fill-rule="evenodd"><circle stroke="#E1E4EB" stroke-width="3" fill="#1F2C5E" cx="42.5" cy="42.5" r="42.5"/><path d="M43 8C23.75 8 8 23.75 8 43s15.75 35 35 35 35-15.75 35-35S62.25 8 43 8zm0 10.5c5.95 0 10.5 4.55 10.5 10.5S48.95 39.5 43 39.5 32.5 34.95 32.5 29 37.05 18.5 43 18.5zm0 49.7c-8.75 0-16.45-4.55-21-11.2 0-7 14-10.85 21-10.85S64 50 64 57c-4.55 6.65-12.25 11.2-21 11.2z" fill-opacity=".069" fill="#000"/></g></svg>