<?xml version="1.0" encoding="UTF-8" standalone="no"?>
<svg width="80px" height="80px" viewBox="0 0 80 80" version="1.1" xmlns="http://www.w3.org/2000/svg" xmlns:xlink="http://www.w3.org/1999/xlink">
    <!-- Generator: Sketch 3.6.1 (26313) - http://www.bohemiancoding.com/sketch -->
    <title>app-icon</title>
    <desc>Created with Sketch.</desc>
    <defs>
        <rect id="path-1" x="0" y="0" width="79.834474" height="79.834474" rx="4"></rect>
    </defs>
    <g id="Page-1" stroke="none" stroke-width="1" fill="none" fill-rule="evenodd">
        <g id="desktop/login" transform="translate(-654.000000, -244.000000)">
            <g id="logo" transform="translate(578.000000, 244.000000)">
                <g id="app-icon" transform="translate(76.000000, 0.000000)">
                    <mask id="mask-2" fill="white">
                        <use xlink:href="#path-1"></use>
                    </mask>
                    <use id="Rectangle-16" fill="#3D53C0" xlink:href="#path-1"></use>
                    <g id="Page-1" mask="url(#mask-2)">
                        <g transform="translate(59.059631, 27.544367) rotate(-300.000000) translate(-59.059631, -27.544367) translate(-22.907582, -49.832682)">
                            <path d="M115.029827,87.831909 C118.491863,86.5034194 125.006774,84.4290157 129.416612,84.4290157 C133.825874,84.4290157 135.746797,86.6664747 135.746797,88.3990578 C135.746797,90.131641 132.86944,91.1607893 132.86944,94.0705467 C132.86944,96.980304 134.850213,99.7420355 138.624154,99.7420355 C142.39752,99.7420355 144.95434,97.3676667 144.95434,94.0705467 C144.95434,90.7733699 142.652454,89.5708442 142.652454,87.831909 C142.652454,86.0929171 148.167196,84.9961645 152.435468,84.9961645 C156.703164,84.9961645 163.136358,88.3990578 163.136358,88.3990578 L163.136358,50.5392042 C163.136358,50.5392042 154.708004,54.3702949 148.407168,54.3702949 C145.632245,54.3702949 142.076983,53.0760612 142.076983,50.9674016 C142.076983,48.8587421 145.529811,47.2327262 145.529811,44.161615 C145.529811,41.0905038 141.137238,39.0572751 138.624154,39.0572751 C136.110495,39.0572751 131.718497,40.4864903 131.718497,43.5944661 C131.718497,46.702442 134.020383,48.9228299 134.020383,50.9674016 C134.020383,53.0119734 130.569281,53.8031461 125.388312,53.8031461 C120.206768,53.8031461 113.303413,51.5345505 113.303413,51.5345505 C113.303413,51.5345505 110.426056,56.1545453 110.426056,61.7432304 C110.426056,64.3560853 110.627471,65.9287892 112.340074,65.9287892 C115.323317,65.9287892 117.164826,63.85586 120.00823,63.85586 C122.075899,63.85586 124.545246,65.7535402 124.545246,68.8325915 C124.545246,72.5820128 122.114455,74.0271081 119.473617,74.0271081 C117.283373,74.0271081 115.836062,71.6791117 113.303413,72.5190592 C109.87648,73.6550584 110.988291,80.4154731 115.029827,87.831909 L115.029827,87.831909 Z" id="Fill-1" stroke="none" fill="#3D53C0" fill-rule="evenodd"></path>
                            <path d="M115.029827,87.831909 C118.491863,86.5034194 125.006774,84.4290157 129.416612,84.4290157 C133.825874,84.4290157 135.746797,86.6664747 135.746797,88.3990578 C135.746797,90.131641 132.86944,91.1607893 132.86944,94.0705467 C132.86944,96.980304 134.850213,99.7420355 138.624154,99.7420355 C142.39752,99.7420355 144.95434,97.3676667 144.95434,94.0705467 C144.95434,90.7733699 142.652454,89.5708442 142.652454,87.831909 C142.652454,86.0929171 148.167196,84.9961645 152.435468,84.9961645 C156.703164,84.9961645 163.136358,88.3990578 163.136358,88.3990578 L163.136358,50.5392042 C163.136358,50.5392042 154.708004,54.3702949 148.407168,54.3702949 C145.632245,54.3702949 142.076983,53.0760612 142.076983,50.9674016 C142.076983,48.8587421 145.529811,47.2327262 145.529811,44.161615 C145.529811,41.0905038 141.137238,39.0572751 138.624154,39.0572751 C136.110495,39.0572751 131.718497,40.4864903 131.718497,43.5944661 C131.718497,46.702442 134.020383,48.9228299 134.020383,50.9674016 C134.020383,53.0119734 130.569281,53.8031461 125.388312,53.8031461 C120.206768,53.8031461 113.303413,51.5345505 113.303413,51.5345505 C113.303413,51.5345505 110.426056,56.1545453 110.426056,61.7432304 C110.426056,64.3560853 110.627471,65.9287892 112.340074,65.9287892 C115.323317,65.9287892 117.164826,63.85586 120.00823,63.85586 C122.075899,63.85586 124.545246,65.7535402 124.545246,68.8325915 C124.545246,72.5820128 122.114455,74.0271081 119.473617,74.0271081 C117.283373,74.0271081 115.836062,71.6791117 113.303413,72.5190592 C109.87648,73.6550584 110.988291,80.4154731 115.029827,87.831909 L115.029827,87.831909 Z" id="Stroke-2" stroke="none" fill="#3D53C0" fill-rule="evenodd"></path>
                            <path d="M12.4892256,87.831909 C15.9517794,86.5034194 22.4666911,84.4290157 26.8760105,84.4290157 C31.2853299,84.4290157 33.2061959,86.6664747 33.2061959,88.3990578 C33.2061959,90.131641 30.3288389,91.1607893 30.3288389,94.0705467 C30.3288389,96.980304 32.309669,99.7420355 36.0835529,99.7420355 C39.8574943,99.7420355 42.4137383,97.3676667 42.4137383,94.0705467 C42.4137383,90.7733699 40.1118527,89.5708442 40.1118527,87.831909 C40.1118527,86.0929171 45.6271706,84.9961645 49.8948665,84.9961645 C54.1625623,84.9961645 62.5382033,90.0152053 62.5382033,90.0152053 C62.5382033,90.0152053 64.9557586,81.836408 65.0058246,78.1871452 C65.0058246,75.5436642 63.7864007,73.5972093 62.5186372,73.5972093 C60.5344119,73.5972093 58.4759507,75.9877418 55.7905709,75.9877418 C51.9975814,75.9877418 50.0379286,72.1129806 50.0379286,70.3361032 C50.0379286,66.190812 54.381932,64.5063798 56.1209491,64.3833085 C59.8490254,64.3833085 59.4876294,65.9350278 62.5951749,65.9350278 C64.3912212,65.9350278 64.5419947,64.9635018 64.3509382,63.1214022 C63.5752027,55.6639615 62.2855713,51.5674452 62.2855713,51.5674452 C62.2855713,51.5674452 52.1679209,54.3702949 45.8665667,54.3702949 C43.0918738,54.3702949 40.6075062,53.8088175 40.6075062,51.700158 C40.6075062,49.5914984 42.9892097,47.2327262 42.9892097,44.161615 C42.9892097,41.0905038 39.7480972,39.0572751 37.2344957,39.0572751 C34.7209517,39.0572751 30.3288389,40.4864903 30.3288389,43.5944661 C30.3288389,46.702442 32.6307245,48.9228299 32.6307245,50.9674016 C32.6307245,53.0119734 28.0291977,53.8031461 22.8477107,53.8031461 C17.6662238,53.8031461 11.2474734,50.0866194 11.2474734,50.0866194 C11.2474734,50.0866194 7.88545438,56.1545453 7.88545438,61.7432304 C7.88545438,64.3560853 8.08704201,65.9287892 9.79958735,65.9287892 C12.7829462,65.9287892 14.6243396,63.85586 17.4676286,63.85586 C19.5354125,63.85586 22.0047602,65.7535402 22.0047602,68.8325915 C22.0047602,72.5820128 19.5741417,74.0271081 16.9334185,74.0271081 C14.7430018,74.0271081 13.2955761,71.6791117 10.7628114,72.5190592 C7.33622448,73.6550584 8.44803522,80.4154731 12.4892256,87.831909 L12.4892256,87.831909 Z" id="Stroke-4" stroke="none" fill="#3D53C0" fill-rule="evenodd"></path>
                            <path d="M115.2416,87.8980952 C115.2416,87.8980952 116.355137,92.4262119 116.355137,96.3547388 C116.355137,99.4994092 114.918761,103.884945 113.083007,103.884945 C111.797979,103.884945 110.628046,102.232273 106.973227,102.232273 C104.246644,102.232273 100.825466,104.318417 100.825466,108.092792 C100.825466,111.867168 103.13138,113.957395 106.314888,113.957395 C109.49782,113.957395 110.775942,111.620629 112.840158,111.620629 C114.454355,111.620629 115.084497,113.564928 115.084497,117.010868 C115.084497,121.655704 109.725707,127.036926 109.725707,127.036926 C109.725707,127.036926 116.873637,130.211599 122.510955,130.211599 C128.147697,130.211599 132.813044,129.473455 132.813044,127.060747 C132.813044,124.647982 131.518809,123.564898 131.518809,121.241912 C131.518809,118.918871 132.852752,115.218167 137.948551,115.218167 C142.063747,115.218167 143.227925,117.661161 143.227925,120.002919 C143.227925,124.428779 140.92604,125.060583 140.92604,127.375854 C140.92604,128.88362 144.938802,129.364959 147.160121,129.364959 C154.790872,129.364959 162.985585,126.052526 162.985585,126.052526 L163.097802,88.3674109 C163.097802,88.3674109 157.268277,84.9763143 151.533129,84.9763143 C145.797981,84.9763143 142.651303,86.9412584 142.651303,88.0129429 C142.651303,89.0846274 144.981962,91.3872519 144.981962,93.9779313 C144.981962,97.6110303 141.882473,99.6564528 138.347928,99.6564528 C134.813958,99.6564528 133.043233,97.2252556 133.043233,94.1529534 C133.043233,91.0807079 135.717448,90.0657383 135.717448,88.3448951 C135.717448,85.7943132 132.300874,84.4996257 129.417763,84.4996257 C122.866021,84.4996257 115.2416,87.8980952 115.2416,87.8980952 L115.2416,87.8980952 Z" id="Fill-5" stroke="none" fill="#3D53C0" fill-rule="evenodd"></path>
                            <path d="M115.2416,87.8980952 C115.2416,87.8980952 116.355137,92.4262119 116.355137,96.3547388 C116.355137,99.4994092 114.918761,103.884945 113.083007,103.884945 C111.797979,103.884945 110.628046,102.232273 106.973227,102.232273 C104.246644,102.232273 100.825466,104.318417 100.825466,108.092792 C100.825466,111.867168 103.13138,113.957395 106.314888,113.957395 C109.49782,113.957395 110.775942,111.620629 112.840158,111.620629 C114.454355,111.620629 115.084497,113.564928 115.084497,117.010868 C115.084497,121.655704 109.725707,127.036926 109.725707,127.036926 C109.725707,127.036926 116.873637,130.211599 122.510955,130.211599 C128.147697,130.211599 132.813044,129.473455 132.813044,127.060747 C132.813044,124.647982 131.518809,123.564898 131.518809,121.241912 C131.518809,118.918871 132.852752,115.218167 137.948551,115.218167 C142.063747,115.218167 143.227925,117.661161 143.227925,120.002919 C143.227925,124.428779 140.92604,125.060583 140.92604,127.375854 C140.92604,128.88362 144.938802,129.364959 147.160121,129.364959 C154.790872,129.364959 162.985585,126.052526 162.985585,126.052526 L163.097802,88.3674109 C163.097802,88.3674109 157.268277,84.9763143 151.533129,84.9763143 C145.797981,84.9763143 142.651303,86.9412584 142.651303,88.0129429 C142.651303,89.0846274 144.981962,91.3872519 144.981962,93.9779313 C144.981962,97.6110303 141.882473,99.6564528 138.347928,99.6564528 C134.813958,99.6564528 133.043233,97.2252556 133.043233,94.1529534 C133.043233,91.0807079 135.717448,90.0657383 135.717448,88.3448951 C135.717448,85.7943132 132.300874,84.4996257 129.417763,84.4996257 C122.866021,84.4996257 115.2416,87.8980952 115.2416,87.8980952 L115.2416,87.8980952 Z" id="Stroke-6" stroke="none" fill="#4D62DF" fill-rule="evenodd"></path>
                            <path d="M11.1412414,50.1456029 C11.1412414,50.1456029 14.6741178,44.5960511 14.6741178,39.6987204 C14.6741178,36.7342332 14.4355849,35.1547236 13.109296,35.1547236 C11.7830071,35.1547236 10.1513155,37.087567 7.54201305,37.087567 C2.86544473,37.087567 0.498358231,34.2864186 0.498358231,31.3298715 C0.498358231,28.3727572 3.22373323,25.6544126 6.38796271,25.6544126 C10.1456758,25.6544126 11.2735422,28.6580331 13.1446875,28.6580331 C14.4841547,28.6580331 15.0891478,23.990965 15.0891478,22.2050131 C15.0891478,18.9206539 12.4393897,12.0683611 12.4393897,12.0683611 C12.4393897,12.0683611 20.5850723,8.48057727 26.6943918,8.48057727 C31.2739931,8.48057727 33.1563601,9.54851862 33.1563601,10.6998309 C33.228294,13.2729853 30.8544745,15.2648122 30.8544745,18.0727663 C30.8544745,21.4626152 34.244634,23.1771063 37.7601313,23.1771063 C41.2756285,23.1771063 43.8596102,20.1343525 43.8596102,17.4347239 C43.8596102,14.7350952 41.0013588,13.835597 41.1480465,10.6998309 C41.1480465,8.95414658 44.4393401,8.38189336 46.5611031,8.38189336 C48.6828661,8.38189336 59.3282238,9.93077696 62.594024,11.671924 C61.5587509,14.1503647 58.6721864,19.3250311 58.6111864,24.8638071 C58.5841393,27.2719212 58.8805071,27.7534307 60.3140063,27.7534307 C62.7016371,27.7534307 63.8928629,25.81208 67.1500311,25.81208 C68.6243888,25.81208 73.0376789,27.0830607 73.0376789,31.6151474 C73.0376789,33.7470601 70.6345104,37.3144265 66.6234747,37.3144265 C63.0302313,37.3144265 62.4265618,35.5988012 60.7260438,35.5988012 C59.0255259,35.5988012 58.8666957,37.9570062 58.8223844,40.1904385 C58.7141958,45.6208891 62.1560903,51.5328491 62.1560903,51.5328491 C62.1560903,51.5328491 51.6771014,54.4185026 45.9372921,54.4185026 C41.0376135,54.4185026 40.5349393,52.6166706 40.5349393,51.7455299 C40.5349393,49.9159076 42.7713362,47.6314319 42.9183116,43.8718019 C42.9183116,42.0002106 41.0831333,39.1162585 37.2625212,39.1162585 C33.4418514,39.1162585 30.3964568,40.7853777 30.3964568,43.6920157 C30.3964568,46.4687767 32.6834952,49.3226699 32.6834952,50.5720989 C32.6834952,52.8520374 28.2005155,53.8031461 22.9948588,53.8031461 C17.7892021,53.8031461 11.1412414,50.1456029 11.1412414,50.1456029 L11.1412414,50.1456029 Z" id="Fill-9" stroke="#233266" stroke-width="1.5" fill="#3D53C0" fill-rule="evenodd"></path>
                            <path d="M11.1412414,50.1456029 C11.1412414,50.1456029 14.6741178,44.5960511 14.6741178,39.6987204 C14.6741178,36.7342332 14.4355849,35.1547236 13.109296,35.1547236 C11.7830071,35.1547236 10.1513155,37.087567 7.54201305,37.087567 C2.86544473,37.087567 0.498358231,34.2864186 0.498358231,31.3298715 C0.498358231,28.3727572 3.22373323,25.6544126 6.38796271,25.6544126 C10.1456758,25.6544126 11.2735422,28.6580331 13.1446875,28.6580331 C14.4841547,28.6580331 15.0891478,23.990965 15.0891478,22.2050131 C15.0891478,18.9206539 12.4393897,12.0683611 12.4393897,12.0683611 C12.4393897,12.0683611 20.5850723,8.48057727 26.6943918,8.48057727 C31.2739931,8.48057727 33.1563601,9.54851862 33.1563601,10.6998309 C33.228294,13.2729853 30.8544745,15.2648122 30.8544745,18.0727663 C30.8544745,21.4626152 34.244634,23.1771063 37.7601313,23.1771063 C41.2756285,23.1771063 43.8596102,20.1343525 43.8596102,17.4347239 C43.8596102,14.7350952 41.0013588,13.835597 41.1480465,10.6998309 C41.1480465,8.95414658 44.4393401,8.38189336 46.5611031,8.38189336 C48.6828661,8.38189336 59.3282238,9.93077696 62.594024,11.671924 C61.5587509,14.1503647 58.6721864,19.3250311 58.6111864,24.8638071 C58.5841393,27.2719212 58.8805071,27.7534307 60.3140063,27.7534307 C62.7016371,27.7534307 63.8928629,25.81208 67.1500311,25.81208 C68.6243888,25.81208 73.0376789,27.0830607 73.0376789,31.6151474 C73.0376789,33.7470601 70.6345104,37.3144265 66.6234747,37.3144265 C63.0302313,37.3144265 62.4265618,35.5988012 60.7260438,35.5988012 C59.0255259,35.5988012 58.8666957,37.9570062 58.8223844,40.1904385 C58.7141958,45.6208891 62.1560903,51.5328491 62.1560903,51.5328491 C62.1560903,51.5328491 51.6771014,54.4185026 45.9372921,54.4185026 C41.0376135,54.4185026 40.5349393,52.6166706 40.5349393,51.7455299 C40.5349393,49.9159076 42.7713362,47.6314319 42.9183116,43.8718019 C42.9183116,42.0002106 41.0831333,39.1162585 37.2625212,39.1162585 C33.4418514,39.1162585 30.3964568,40.7853777 30.3964568,43.6920157 C30.3964568,46.4687767 32.6834952,49.3226699 32.6834952,50.5720989 C32.6834952,52.8520374 28.2005155,53.8031461 22.9948588,53.8031461 C17.7892021,53.8031461 11.1412414,50.1456029 11.1412414,50.1456029 L11.1412414,50.1456029 Z" id="Stroke-10" stroke="#233266" stroke-width="1.5" stroke-linecap="round" stroke-linejoin="round" fill="none"></path>
                            <path d="M11.3142856,125.938869 C11.3142856,125.938869 14.8472196,120.389091 14.8472196,115.49176 C14.8472196,112.527386 14.6086867,110.947933 13.2823978,110.947933 C11.9561089,110.947933 10.3243597,112.880607 7.71511485,112.880607 C3.76761124,112.880607 1.31777195,110.079628 1.31777195,107.122741 C1.31777195,104.165854 3.68451317,101.801013 6.84880021,101.801013 C10.6065133,101.801013 11.446644,104.450903 13.3177893,104.450903 C14.6572565,104.450903 15.7406965,103.348876 15.7406965,101.56281 C15.7406965,95.4264295 12.6124915,87.8612873 12.6124915,87.8612873 C12.6124915,87.8612873 20.7581741,84.27339 26.8674935,84.27339 C31.4470949,84.27339 33.1335139,86.8880598 33.1335139,88.0394287 C33.2054478,90.6128101 30.1816333,91.2467124 30.1816333,94.0546665 C30.1816333,97.444402 32.8880178,99.7830404 35.7497219,99.7830404 C39.2652192,99.7830404 42.4861326,98.0012287 42.4861326,93.3560525 C42.4861326,90.6564238 40.0798565,90.0223514 40.1942026,87.5782233 C40.1942026,85.832936 47.2514961,84.9243635 49.3732592,84.9243635 C51.4950222,84.9243635 57.7094228,86.5563911 62.3753449,90.0621652 C61.3394963,92.5408327 58.8454033,95.1179005 58.7838279,100.65679 C58.7573562,103.064847 59.0537239,103.54647 60.4872232,103.54647 C62.874854,103.54647 64.0660798,101.604949 67.3232479,101.604949 C68.7976057,101.604949 73.2108958,102.875987 73.2108958,107.407903 C73.2108958,109.539986 70.8077273,113.107636 66.7966916,113.107636 C63.2028727,113.107636 62.5997787,111.391784 60.8992607,111.391784 C59.1987427,111.391784 59.0399126,113.749876 58.9956013,115.983478 C58.8874127,121.414156 62.3293071,127.325945 62.3293071,127.325945 C62.3293071,127.325945 51.8502032,130.211599 46.1103939,130.211599 C41.2107153,130.211599 40.7080411,128.409483 40.7080411,127.538399 C40.7080411,125.709174 42.944438,123.424245 43.0914134,119.664785 C43.0914134,117.793194 41.2562351,114.909128 37.4356229,114.909128 C33.6149532,114.909128 30.5695586,116.578531 30.5695586,119.485055 C30.5695586,122.261703 32.856597,125.115709 32.856597,126.365082 C32.856597,128.64519 28.3736173,129.596016 23.1679606,129.596016 C17.9623038,129.596016 11.3142856,125.938869 11.3142856,125.938869 L11.3142856,125.938869 Z" id="Fill-11" stroke="none" fill="#4D62DF" fill-rule="evenodd"></path>
                            <path d="M62.6619296,11.8341286 C62.6619296,11.8341286 58.6336298,18.9558172 58.6336298,24.878553 C58.6336298,27.1272983 58.6618279,27.7142974 59.7845726,27.7142974 C63.1522312,27.7142974 63.9688252,25.7905284 67.0406915,25.7905284 C70.1125578,25.7905284 73.0204148,28.394876 73.0204148,31.3758106 C73.0204148,34.0368731 70.4100765,37.3558284 66.6902294,37.3558284 C62.9698068,37.3558284 62.694156,35.6543818 60.8912041,35.6543818 C59.0888277,35.6543818 58.8269882,37.689312 58.8269882,40.515982 C58.902375,45.8205255 62.1773827,51.6139514 62.1773827,51.6139514 C62.1773827,51.6139514 73.5112919,48.1061355 79.3506002,48.1061355 C81.2174294,48.1061355 83.3789,48.0902553 83.3789,49.265955 C83.3789,52.0807149 80.621241,54.2528951 80.621241,56.7472159 C80.621241,59.2415367 83.2730132,62.3103793 87.1091056,62.3103793 C91.7497069,62.3103793 93.1774515,58.9290377 93.1774515,56.5583553 C93.1774515,52.7431448 91.3894618,50.7399749 91.3894618,49.1417494 C91.3894618,49.1417494 91.4936221,48.1373287 93.1935647,48.1061355 C99.5910802,47.9881685 102.638777,48.1412987 113.303413,51.5345505 C113.303413,51.5345505 116.756241,45.2516752 116.756241,39.6244239 C116.707901,35.9016587 115.409638,34.619335 114.452054,34.5336956 C113.304564,34.4395488 111.111442,37.0841641 107.176369,37.0841641 C105.334285,37.0841641 100.644768,36.1018622 100.644768,31.0207754 C100.594702,27.4885721 103.957757,24.878553 106.973227,24.878553 C110.178028,24.8467926 113.372469,26.6922951 114.186186,26.6922951 C114.999902,26.6922951 115.327346,25.5506244 115.327346,21.8800368 C115.327346,19.8751655 114.004912,14.7124092 112.641621,12.1681793 C108.857896,13.054633 104.4377,15.4723887 99.5559764,15.4723887 C94.6736771,15.4723887 91.6173485,14.669873 91.6783485,12.6780462 C91.7347447,10.8280065 94.3128565,9.68973869 94.3128565,6.16263978 C94.3128565,2.63497372 90.9779998,0.491150934 88.5581425,0.491150934 C86.1377098,0.491150934 81.6524858,1.6498361 81.6524858,5.59549089 C81.5949386,9.16002163 83.2212208,9.37156816 83.2212208,12.3173395 C83.2212208,14.4634308 78.1611008,14.7759299 75.2647532,14.7759299 C67.7456439,14.7759299 62.6619296,11.8341286 62.6619296,11.8341286 L62.6619296,11.8341286 Z" id="Fill-13" stroke="none" fill="#3D53C0" fill-rule="evenodd"></path>
                            <path d="M62.6619296,11.8341286 C62.6619296,11.8341286 58.6336298,18.9558172 58.6336298,24.878553 C58.6336298,27.1272983 58.6618279,27.7142974 59.7845726,27.7142974 C63.1522312,27.7142974 63.9688252,25.7905284 67.0406915,25.7905284 C70.1125578,25.7905284 73.0204148,28.394876 73.0204148,31.3758106 C73.0204148,34.0368731 70.4100765,37.3558284 66.6902294,37.3558284 C62.9698068,37.3558284 62.694156,35.6543818 60.8912041,35.6543818 C59.0888277,35.6543818 58.8269882,37.689312 58.8269882,40.515982 C58.902375,45.8205255 62.1773827,51.6139514 62.1773827,51.6139514 C62.1773827,51.6139514 73.5112919,48.1061355 79.3506002,48.1061355 C81.2174294,48.1061355 83.3789,48.0902553 83.3789,49.265955 C83.3789,52.0807149 80.621241,54.2528951 80.621241,56.7472159 C80.621241,59.2415367 83.2730132,62.3103793 87.1091056,62.3103793 C91.7497069,62.3103793 93.1774515,58.9290377 93.1774515,56.5583553 C93.1774515,52.7431448 91.3894618,50.7399749 91.3894618,49.1417494 C91.3894618,49.1417494 91.4936221,48.1373287 93.1935647,48.1061355 C99.5910802,47.9881685 102.638777,48.1412987 113.303413,51.5345505 C113.303413,51.5345505 116.756241,45.2516752 116.756241,39.6244239 C116.707901,35.9016587 115.409638,34.619335 114.452054,34.5336956 C113.304564,34.4395488 111.111442,37.0841641 107.176369,37.0841641 C105.334285,37.0841641 100.644768,36.1018622 100.644768,31.0207754 C100.594702,27.4885721 103.957757,24.878553 106.973227,24.878553 C110.178028,24.8467926 113.372469,26.6922951 114.186186,26.6922951 C114.999902,26.6922951 115.327346,25.5506244 115.327346,21.8800368 C115.327346,19.8751655 114.004912,14.7124092 112.641621,12.1681793 C108.857896,13.054633 104.4377,15.4723887 99.5559764,15.4723887 C94.6736771,15.4723887 91.6173485,14.669873 91.6783485,12.6780462 C91.7347447,10.8280065 94.3128565,9.68973869 94.3128565,6.16263978 C94.3128565,2.63497372 90.9779998,0.491150934 88.5581425,0.491150934 C86.1377098,0.491150934 81.6524858,1.6498361 81.6524858,5.59549089 C81.5949386,9.16002163 83.2212208,9.37156816 83.2212208,12.3173395 C83.2212208,14.4634308 78.1611008,14.7759299 75.2647532,14.7759299 C67.7456439,14.7759299 62.6619296,11.8341286 62.6619296,11.8341286 L62.6619296,11.8341286 Z" id="Stroke-14" stroke="none" fill="#3D53C0" fill-rule="evenodd"></path>
                            <path d="M62.6619296,90.0397629 C62.6619296,90.0397629 58.9190636,94.6900434 58.8367712,100.253774 C58.8367712,102.50286 58.8902901,103.59275 60.0124593,103.59275 C62.95542,103.649067 64.2329665,101.625877 67.3048329,101.625877 C70.3761237,101.625877 73.1021317,103.83237 73.1021317,106.813418 C73.1021317,109.474254 70.8100291,113.081094 67.0896066,113.081094 C63.3697594,113.081094 62.7799013,111.379647 60.9769494,111.379647 C59.1745729,111.379647 58.9127335,114.00929 58.9127335,116.836073 C58.9127335,121.76006 62.3126185,127.420603 62.3126185,127.420603 C62.3126185,127.420603 71.3722647,122.868552 78.1254216,122.868552 C79.9922508,122.868552 83.3789,123.017939 83.3789,124.193696 C83.3789,127.008852 80.621241,129.180919 80.621241,131.67507 C80.621241,134.169277 83.2730132,137.23812 87.1091056,137.23812 C91.7497069,137.23812 93.1774515,133.856892 93.1774515,131.485982 C93.1774515,127.671169 91.3894618,125.667602 91.3894618,124.069603 C91.3894618,124.069603 91.7968956,122.81887 93.4968381,122.787563 C99.8943536,122.669653 101.695579,123.208104 109.65665,127.072997 C109.65665,127.072997 115.104638,122.158595 115.104638,116.531344 C115.056299,112.808692 113.758611,111.526539 112.800451,111.440842 C111.652961,111.346355 109.657226,113.991084 105.722152,113.991084 C103.879493,113.991084 100.644768,111.750109 100.644768,108.217282 C100.594702,104.684795 103.957757,102.074889 106.973227,102.074889 C110.178028,102.043299 112.447687,103.943815 113.261403,103.943815 C114.07512,103.943815 116.279751,100.828976 116.279751,97.1583321 C116.279751,95.1534041 116.234864,90.4314926 114.871572,87.887603 C110.923263,89.6891514 107.614302,91.0615383 99.0386276,91.0615383 C95.7877897,91.0615383 92.512782,90.4349522 92.573782,88.443182 C92.6301782,86.5928021 93.7373851,85.8580607 93.7373851,82.3306782 C93.7373851,78.8030689 89.7597268,76.9547307 87.3392941,76.9547307 C84.9194369,76.9547307 80.9089767,77.8502587 80.9089767,81.7958001 C80.7087127,87.132898 83.3852301,87.4877063 83.3852301,89.6334007 C83.3852301,91.7790951 76.6228657,92.2323604 73.7265182,92.2323604 C66.2074089,92.2323604 62.6619296,90.0397629 62.6619296,90.0397629 L62.6619296,90.0397629 Z" id="Fill-15" stroke="none" fill="#FFFFFF" fill-rule="evenodd"></path>
                            <path d="M115.029827,87.831909 C115.029827,87.831909 111.260489,81.4094016 111.326668,76.4839971 C111.326668,74.2539677 112.347555,72.3103484 114.221865,72.3103484 C116.096175,72.3103484 117.594127,74.0134965 119.566843,74.0134965 C122.655398,74.0134965 124.532011,72.0364155 124.532011,68.910858 C124.532011,65.7853005 122.328531,63.756609 119.79473,63.756609 C117.666637,63.756609 114.633903,65.8425826 112.469555,65.8425826 C110.304631,65.8425826 110.426056,64.0753466 110.426056,61.7432304 C110.426056,56.2379162 113.303413,51.5345505 113.303413,51.5345505 C113.303413,51.5345505 103.110088,48.1316572 98.3411563,48.1316572 C93.5716494,48.1316572 91.4354995,47.833904 91.4354995,49.265955 C91.4354995,50.6974388 93.1619137,53.4033061 93.1619137,56.6388905 C93.1619137,59.6600926 91.1172638,62.3103793 86.8317283,62.3103793 C82.4788627,62.3103793 80.5849863,58.6658806 80.5849863,56.6388905 C80.5849863,54.6113332 83.3789,51.7273811 83.3789,49.265955 C83.3789,48.138463 81.1823256,48.1316572 78.1996574,48.1316572 C72.9012922,48.1316572 62.0778261,51.5475949 62.0778261,51.5475949 C62.0778261,51.5475949 64.3883438,59.5460957 64.3883438,63.4446771 C64.3883438,65.2533149 64.07241,66.00422 62.3321845,66.00422 C60.5925345,66.00422 58.7625354,64.2908632 56.6145309,64.2908632 C54.0898803,64.2908632 50.0012711,66.503311 50.0012711,70.2504637 C50.0012711,73.4264974 53.2830694,75.9219525 55.7559851,75.9219525 C59.233271,75.9219525 59.8202519,73.6664014 62.6619296,73.6664014 C64.2162779,73.6664014 64.9638152,75.900968 64.9638152,78.757697 C64.9638152,81.6140856 62.5617976,90.0048832 62.5617976,90.0048832 C62.5617976,90.0048832 66.8835878,92.2823263 73.4359051,92.2823263 C81.1932596,92.2823263 83.4997489,90.6656684 83.4997489,89.3889595 C83.4997489,88.1123074 80.8848069,86.7716808 80.8848069,81.8768457 C80.8848069,78.0669096 84.2852674,76.9655065 87.0527094,76.9655065 C89.8201513,76.9655065 93.7373851,78.8501422 93.7373851,82.1604201 C93.7373851,85.4708114 92.3033104,87.8951461 92.5864423,88.9662067 C92.9846685,90.4742556 96.8869401,91.3384204 101.712268,91.0617651 C107.95268,90.7039509 113.096243,89.2302713 115.029827,87.831909 L115.029827,87.831909 Z" id="Fill-17" stroke="none" fill="#4D62DF" fill-rule="evenodd"></path>
                        </g>
                    </g>
                </g>
            </g>
        </g>
    </g>
</svg>