<?xml version="1.0" encoding="UTF-8" standalone="no"?>
<svg width="61px" height="61px" viewBox="0 0 61 61" version="1.1" xmlns="http://www.w3.org/2000/svg" xmlns:xlink="http://www.w3.org/1999/xlink">
    <!-- Generator: Sketch 3.6.1 (26313) - http://www.bohemiancoding.com/sketch -->
    <title>app-icon</title>
    <desc>Created with Sketch.</desc>
    <defs>
        <rect id="path-1" x="0" y="0" width="60.8737864" height="60.8737864" rx="4"></rect>
    </defs>
    <g id="Page-1" stroke="none" stroke-width="1" fill="none" fill-rule="evenodd">
        <g id="desktop/dashboard" transform="translate(-20.000000, -48.000000)">
            <g id="sidebar">
                <g id="logo" transform="translate(20.000000, 48.000000)">
                    <g id="app-icon">
                        <mask id="mask-2" fill="white">
                            <use xlink:href="#path-1"></use>
                        </mask>
                        <use id="Rectangle-16" fill="#3D53C0" xlink:href="#path-1"></use>
                        <g id="Page-1" mask="url(#mask-2)">
                            <g transform="translate(45.032968, 21.002580) rotate(-300.000000) translate(-45.032968, -21.002580) translate(-17.467032, -37.997420)">
                                <path d="M87.710243,66.9718306 C90.3500454,65.9588573 95.3176656,64.3771244 98.6801665,64.3771244 C102.042229,64.3771244 103.506933,66.083187 103.506933,67.4042816 C103.506933,68.7253762 101.312948,69.5101019 101.312948,71.7287918 C101.312948,73.9474818 102.823287,76.0533021 105.700918,76.0533021 C108.578109,76.0533021 110.527684,74.2428459 110.527684,71.7287918 C110.527684,69.2146946 108.772496,68.2977687 108.772496,66.9718306 C108.772496,65.6458493 112.977487,64.8095755 116.232044,64.8095755 C119.486162,64.8095755 124.391473,67.4042816 124.391473,67.4042816 L124.391473,38.5361432 C124.391473,38.5361432 117.964853,41.4573499 113.160466,41.4573499 C111.044587,41.4573499 108.333699,40.4704967 108.333699,38.8626437 C108.333699,37.2547908 110.966481,36.0149537 110.966481,33.6732315 C110.966481,31.3315092 107.617144,29.7811722 105.700918,29.7811722 C103.784253,29.7811722 100.435354,30.8709488 100.435354,33.2407804 C100.435354,35.610612 102.190542,37.3036578 102.190542,38.8626437 C102.190542,40.4216297 99.5590768,41.0248989 95.6085879,41.0248989 C91.6576603,41.0248989 86.3938522,39.2950948 86.3938522,39.2950948 C86.3938522,39.2950948 84.1998675,42.8178408 84.1998675,47.0792132 C84.1998675,49.0715151 84.3534464,50.2707018 85.6593061,50.2707018 C87.9340294,50.2707018 89.3381796,48.6900933 91.5062753,48.6900933 C93.0828727,48.6900933 94.9657504,50.1370744 94.9657504,52.484851 C94.9657504,55.3437847 93.1122721,56.4456699 91.098633,56.4456699 C89.4285718,56.4456699 88.3249975,54.6553227 86.3938522,55.2957827 C83.7808164,56.1619821 84.6285721,61.3167983 87.710243,66.9718306 L87.710243,66.9718306 Z" id="Fill-1" stroke="none" fill="#3D53C0" fill-rule="evenodd"></path>
                                <path d="M87.710243,66.9718306 C90.3500454,65.9588573 95.3176656,64.3771244 98.6801665,64.3771244 C102.042229,64.3771244 103.506933,66.083187 103.506933,67.4042816 C103.506933,68.7253762 101.312948,69.5101019 101.312948,71.7287918 C101.312948,73.9474818 102.823287,76.0533021 105.700918,76.0533021 C108.578109,76.0533021 110.527684,74.2428459 110.527684,71.7287918 C110.527684,69.2146946 108.772496,68.2977687 108.772496,66.9718306 C108.772496,65.6458493 112.977487,64.8095755 116.232044,64.8095755 C119.486162,64.8095755 124.391473,67.4042816 124.391473,67.4042816 L124.391473,38.5361432 C124.391473,38.5361432 117.964853,41.4573499 113.160466,41.4573499 C111.044587,41.4573499 108.333699,40.4704967 108.333699,38.8626437 C108.333699,37.2547908 110.966481,36.0149537 110.966481,33.6732315 C110.966481,31.3315092 107.617144,29.7811722 105.700918,29.7811722 C103.784253,29.7811722 100.435354,30.8709488 100.435354,33.2407804 C100.435354,35.610612 102.190542,37.3036578 102.190542,38.8626437 C102.190542,40.4216297 99.5590768,41.0248989 95.6085879,41.0248989 C91.6576603,41.0248989 86.3938522,39.2950948 86.3938522,39.2950948 C86.3938522,39.2950948 84.1998675,42.8178408 84.1998675,47.0792132 C84.1998675,49.0715151 84.3534464,50.2707018 85.6593061,50.2707018 C87.9340294,50.2707018 89.3381796,48.6900933 91.5062753,48.6900933 C93.0828727,48.6900933 94.9657504,50.1370744 94.9657504,52.484851 C94.9657504,55.3437847 93.1122721,56.4456699 91.098633,56.4456699 C89.4285718,56.4456699 88.3249975,54.6553227 86.3938522,55.2957827 C83.7808164,56.1619821 84.6285721,61.3167983 87.710243,66.9718306 L87.710243,66.9718306 Z" id="Stroke-2" stroke="none" fill="#3D53C0" fill-rule="evenodd"></path>
                                <path d="M9.5230345,66.9718306 C12.1632318,65.9588573 17.130852,64.3771244 20.492958,64.3771244 C23.8550641,64.3771244 25.3197244,66.083187 25.3197244,67.4042816 C25.3197244,68.7253762 23.1257397,69.5101019 23.1257397,71.7287918 C23.1257397,73.9474818 24.6361226,76.0533021 27.5137091,76.0533021 C30.3913394,76.0533021 32.3404754,74.2428459 32.3404754,71.7287918 C32.3404754,69.2146946 30.5852877,68.2977687 30.5852877,66.9718306 C30.5852877,65.6458493 34.7907176,64.8095755 38.0448357,64.8095755 C41.2989538,64.8095755 47.68538,68.636594 47.68538,68.636594 C47.68538,68.636594 49.5287659,62.4002611 49.5669413,59.6176982 C49.5669413,57.602044 48.6371306,56.1178721 47.6704609,56.1178721 C46.157489,56.1178721 44.5879124,57.9406531 42.5403103,57.9406531 C39.6481558,57.9406531 38.1539206,54.9861477 38.1539206,53.6312787 C38.1539206,50.4704941 41.4662232,49.1861146 42.7922237,49.0922727 C45.6348819,49.0922727 45.3593174,50.2754587 47.7288209,50.2754587 C49.0983061,50.2754587 49.2132709,49.5346701 49.0675904,48.1300692 C48.4760921,42.4437707 47.4927481,39.3201769 47.4927481,39.3201769 C47.4927481,39.3201769 39.7780397,41.4573499 34.9732571,41.4573499 C32.8575538,41.4573499 30.9632235,41.0292234 30.9632235,39.4213705 C30.9632235,37.8135176 32.7792724,36.0149537 32.7792724,33.6732315 C32.7792724,31.3315092 30.3079241,29.7811722 28.391303,29.7811722 C26.4747257,29.7811722 23.1257397,30.8709488 23.1257397,33.2407804 C23.1257397,35.610612 24.8809274,37.3036578 24.8809274,38.8626437 C24.8809274,40.4216297 21.3722632,41.0248989 17.4213794,41.0248989 C13.4704957,41.0248989 8.57619846,38.1910473 8.57619846,38.1910473 C8.57619846,38.1910473 6.01265897,42.8178408 6.01265897,47.0792132 C6.01265897,49.0715151 6.16636953,50.2707018 7.47218535,50.2707018 C9.74699645,50.2707018 11.1510589,48.6900933 13.3190668,48.6900933 C14.895752,48.6900933 16.7786297,50.1370744 16.7786297,52.484851 C16.7786297,55.3437847 14.925283,56.4456699 12.9117316,56.4456699 C11.2415388,56.4456699 10.1378768,54.6553227 8.20664367,55.2957827 C5.59387117,56.1619821 6.44162686,61.3167983 9.5230345,66.9718306 L9.5230345,66.9718306 Z" id="Stroke-4" stroke="none" fill="#3D53C0" fill-rule="evenodd"></path>
                                <path d="M87.8717203,67.0222976 C87.8717203,67.0222976 88.7207923,70.4749866 88.7207923,73.4704883 C88.7207923,75.8682995 87.6255552,79.2122703 86.2257929,79.2122703 C85.2459594,79.2122703 84.3538852,77.952108 81.5670858,77.952108 C79.4880659,77.952108 76.8794181,79.5427927 76.8794181,82.4207542 C76.8794181,85.2987158 78.6376774,86.892514 81.0651021,86.892514 C83.492088,86.892514 84.466656,85.1107293 86.0406206,85.1107293 C87.271446,85.1107293 87.7519287,86.5932579 87.7519287,89.2207871 C87.7519287,92.7624745 83.6658516,96.8656563 83.6658516,96.8656563 C83.6658516,96.8656563 89.1161484,99.2863442 93.4146032,99.2863442 C97.7126193,99.2863442 101.269946,98.7235092 101.269946,96.8838193 C101.269946,95.0440861 100.283092,94.2182344 100.283092,92.4469582 C100.283092,90.6756388 101.300223,87.8538527 105.18577,87.8538527 C108.323607,87.8538527 109.211293,89.7166354 109.211293,91.5022257 C109.211293,94.8769438 107.456105,95.3586942 107.456105,97.124089 C107.456105,98.2737601 110.515836,98.6407813 112.209593,98.6407813 C118.02804,98.6407813 124.276508,96.1150511 124.276508,96.1150511 L124.362074,67.3801508 C124.362074,67.3801508 119.917061,64.7944397 115.544011,64.7944397 C111.17096,64.7944397 108.771619,66.2927095 108.771619,67.109869 C108.771619,67.9270284 110.548746,69.6827796 110.548746,71.6581726 C110.548746,74.4284106 108.185386,75.9880452 105.490295,75.9880452 C102.795643,75.9880452 101.445465,74.1342574 101.445465,71.791627 C101.445465,69.4490398 103.484554,68.6751254 103.484554,67.3629825 C103.484554,65.4181638 100.879417,64.4309646 98.6810441,64.4309646 C93.6853409,64.4309646 87.8717203,67.0222976 87.8717203,67.0222976 L87.8717203,67.0222976 Z" id="Fill-5" stroke="none" fill="#3D53C0" fill-rule="evenodd"></path>
                                <path d="M87.8717203,67.0222976 C87.8717203,67.0222976 88.7207923,70.4749866 88.7207923,73.4704883 C88.7207923,75.8682995 87.6255552,79.2122703 86.2257929,79.2122703 C85.2459594,79.2122703 84.3538852,77.952108 81.5670858,77.952108 C79.4880659,77.952108 76.8794181,79.5427927 76.8794181,82.4207542 C76.8794181,85.2987158 78.6376774,86.892514 81.0651021,86.892514 C83.492088,86.892514 84.466656,85.1107293 86.0406206,85.1107293 C87.271446,85.1107293 87.7519287,86.5932579 87.7519287,89.2207871 C87.7519287,92.7624745 83.6658516,96.8656563 83.6658516,96.8656563 C83.6658516,96.8656563 89.1161484,99.2863442 93.4146032,99.2863442 C97.7126193,99.2863442 101.269946,98.7235092 101.269946,96.8838193 C101.269946,95.0440861 100.283092,94.2182344 100.283092,92.4469582 C100.283092,90.6756388 101.300223,87.8538527 105.18577,87.8538527 C108.323607,87.8538527 109.211293,89.7166354 109.211293,91.5022257 C109.211293,94.8769438 107.456105,95.3586942 107.456105,97.124089 C107.456105,98.2737601 110.515836,98.6407813 112.209593,98.6407813 C118.02804,98.6407813 124.276508,96.1150511 124.276508,96.1150511 L124.362074,67.3801508 C124.362074,67.3801508 119.917061,64.7944397 115.544011,64.7944397 C111.17096,64.7944397 108.771619,66.2927095 108.771619,67.109869 C108.771619,67.9270284 110.548746,69.6827796 110.548746,71.6581726 C110.548746,74.4284106 108.185386,75.9880452 105.490295,75.9880452 C102.795643,75.9880452 101.445465,74.1342574 101.445465,71.791627 C101.445465,69.4490398 103.484554,68.6751254 103.484554,67.3629825 C103.484554,65.4181638 100.879417,64.4309646 98.6810441,64.4309646 C93.6853409,64.4309646 87.8717203,67.0222976 87.8717203,67.0222976 L87.8717203,67.0222976 Z" id="Stroke-6" stroke="none" fill="#4D62DF" fill-rule="evenodd"></path>
                                <path d="M8.49519654,38.2360222 C8.49519654,38.2360222 11.1890148,34.0044889 11.1890148,30.2702743 C11.1890148,28.0098528 11.0071335,26.8054767 9.9958382,26.8054767 C8.98454289,26.8054767 7.74037804,28.2792698 5.75078495,28.2792698 C2.18490161,28.2792698 0.379998151,26.1433942 0.379998151,23.889027 C0.379998151,21.6342274 2.45809658,19.5614896 4.87082157,19.5614896 C7.73607783,19.5614896 8.59607596,21.8517503 10.0228242,21.8517503 C11.044168,21.8517503 11.5054752,18.2931108 11.5054752,16.9313225 C11.5054752,14.4269986 9.48503468,9.20212534 9.48503468,9.20212534 C9.48503468,9.20212534 15.6961176,6.46644017 20.3544737,6.46644017 C23.8464198,6.46644017 25.2817246,7.28074544 25.2817246,8.15862102 C25.3365742,10.1206513 23.5265368,11.6394193 23.5265368,13.7804843 C23.5265368,16.3652441 26.1115335,17.6725436 28.7921001,17.6725436 C31.4726667,17.6725436 33.4429528,15.3524438 33.4429528,13.2939769 C33.4429528,11.2355101 31.2635361,10.5496427 31.3753854,8.15862102 C31.3753854,6.82753677 33.8849968,6.39119369 35.5028411,6.39119369 C37.1206854,6.39119369 45.2377707,7.57221743 47.7279433,8.89984208 C46.9385476,10.7896531 44.7375421,14.7353362 44.6910297,18.9586529 C44.6704062,20.79484 44.8963866,21.1619909 45.9894298,21.1619909 C47.8099983,21.1619909 48.718308,19.681711 51.2018987,19.681711 C52.3260964,19.681711 55.6912302,20.6508338 55.6912302,24.1065499 C55.6912302,25.7321333 53.8588142,28.4522502 50.8003995,28.4522502 C48.0605514,28.4522502 47.6002534,27.1440859 46.3036084,27.1440859 C45.0069635,27.1440859 44.8858555,28.9422172 44.8520681,30.6452094 C44.7695743,34.7859279 47.3940188,39.2937974 47.3940188,39.2937974 C47.3940188,39.2937974 39.4037898,41.4941082 35.0271852,41.4941082 C31.2911803,41.4941082 30.9078912,40.1202113 30.9078912,39.4559665 C30.9078912,38.0608795 32.6131439,36.3189668 32.7252126,33.452249 C32.7252126,32.0251606 31.3258892,29.8261471 28.4126724,29.8261471 C25.4994117,29.8261471 23.1772983,31.0988505 23.1772983,33.315162 C23.1772983,35.4324422 24.9211651,37.6085358 24.9211651,38.5612254 C24.9211651,40.2996785 21.5028931,41.0248989 17.5335798,41.0248989 C13.5642666,41.0248989 8.49519654,38.2360222 8.49519654,38.2360222 L8.49519654,38.2360222 Z" id="Fill-9" stroke="#233266" stroke-width="1.5" fill="#3D53C0" fill-rule="evenodd"></path>
                                <path d="M8.49519654,38.2360222 C8.49519654,38.2360222 11.1890148,34.0044889 11.1890148,30.2702743 C11.1890148,28.0098528 11.0071335,26.8054767 9.9958382,26.8054767 C8.98454289,26.8054767 7.74037804,28.2792698 5.75078495,28.2792698 C2.18490161,28.2792698 0.379998151,26.1433942 0.379998151,23.889027 C0.379998151,21.6342274 2.45809658,19.5614896 4.87082157,19.5614896 C7.73607783,19.5614896 8.59607596,21.8517503 10.0228242,21.8517503 C11.044168,21.8517503 11.5054752,18.2931108 11.5054752,16.9313225 C11.5054752,14.4269986 9.48503468,9.20212534 9.48503468,9.20212534 C9.48503468,9.20212534 15.6961176,6.46644017 20.3544737,6.46644017 C23.8464198,6.46644017 25.2817246,7.28074544 25.2817246,8.15862102 C25.3365742,10.1206513 23.5265368,11.6394193 23.5265368,13.7804843 C23.5265368,16.3652441 26.1115335,17.6725436 28.7921001,17.6725436 C31.4726667,17.6725436 33.4429528,15.3524438 33.4429528,13.2939769 C33.4429528,11.2355101 31.2635361,10.5496427 31.3753854,8.15862102 C31.3753854,6.82753677 33.8849968,6.39119369 35.5028411,6.39119369 C37.1206854,6.39119369 45.2377707,7.57221743 47.7279433,8.89984208 C46.9385476,10.7896531 44.7375421,14.7353362 44.6910297,18.9586529 C44.6704062,20.79484 44.8963866,21.1619909 45.9894298,21.1619909 C47.8099983,21.1619909 48.718308,19.681711 51.2018987,19.681711 C52.3260964,19.681711 55.6912302,20.6508338 55.6912302,24.1065499 C55.6912302,25.7321333 53.8588142,28.4522502 50.8003995,28.4522502 C48.0605514,28.4522502 47.6002534,27.1440859 46.3036084,27.1440859 C45.0069635,27.1440859 44.8858555,28.9422172 44.8520681,30.6452094 C44.7695743,34.7859279 47.3940188,39.2937974 47.3940188,39.2937974 C47.3940188,39.2937974 39.4037898,41.4941082 35.0271852,41.4941082 C31.2911803,41.4941082 30.9078912,40.1202113 30.9078912,39.4559665 C30.9078912,38.0608795 32.6131439,36.3189668 32.7252126,33.452249 C32.7252126,32.0251606 31.3258892,29.8261471 28.4126724,29.8261471 C25.4994117,29.8261471 23.1772983,31.0988505 23.1772983,33.315162 C23.1772983,35.4324422 24.9211651,37.6085358 24.9211651,38.5612254 C24.9211651,40.2996785 21.5028931,41.0248989 17.5335798,41.0248989 C13.5642666,41.0248989 8.49519654,38.2360222 8.49519654,38.2360222 L8.49519654,38.2360222 Z" id="Stroke-10" stroke="#233266" stroke-width="1.5" stroke-linecap="round" stroke-linejoin="round" fill="none"></path>
                                <path d="M8.62714278,96.0283879 C8.62714278,96.0283879 11.321005,91.7966816 11.321005,88.062467 C11.321005,85.802132 11.1391236,84.5977992 10.1278283,84.5977992 C9.11653301,84.5977992 7.87232428,86.0714625 5.88277507,86.0714625 C2.87280357,86.0714625 1.00480112,83.9357166 1.00480112,81.68109 C1.00480112,79.4264633 2.8094413,77.6232723 5.22221016,77.6232723 C8.08746642,77.6232723 8.72806608,79.6438132 10.1548143,79.6438132 C11.1761581,79.6438132 12.0022811,78.8035176 12.0022811,77.4416429 C12.0022811,72.7626525 9.6170248,66.9942315 9.6170248,66.9942315 C9.6170248,66.9942315 15.8281077,64.2584599 20.4864638,64.2584599 C23.9784099,64.2584599 25.2643043,66.2521456 25.2643043,67.1300644 C25.3191539,69.0922677 23.0134954,69.5756182 23.0134954,71.7166832 C23.0134954,74.3013565 25.0771136,76.0845683 27.259163,76.0845683 C29.9397296,76.0845683 32.3956761,74.7259369 32.3956761,71.18399 C32.3956761,69.1255232 30.5608906,68.6420429 30.6480795,66.7783952 C30.6480795,65.4476137 36.0292658,64.7548272 37.6471101,64.7548272 C39.2649544,64.7548272 44.0034349,65.9992482 47.5612005,68.672401 C46.771366,70.5623849 44.86962,72.5273992 44.8226687,76.7508023 C44.8024841,78.5869462 45.0284645,78.9541836 46.1215077,78.9541836 C47.9420762,78.9541836 48.8503859,77.473774 51.3339766,77.473774 C52.4581743,77.473774 55.8233081,78.44294 55.8233081,81.8985264 C55.8233081,83.5242395 53.990892,86.2445727 50.9324774,86.2445727 C48.1921905,86.2445727 47.7323313,84.9362353 46.4356863,84.9362353 C45.1390413,84.9362353 45.0179334,86.7342802 44.984146,88.4374021 C44.9016522,92.5782936 47.5260967,97.0860334 47.5260967,97.0860334 C47.5260967,97.0860334 39.5357799,99.2863442 35.1591753,99.2863442 C31.4231704,99.2863442 31.0398813,97.912231 31.0398813,97.2480295 C31.0398813,95.8532452 32.745134,94.1109865 32.8572027,91.2443984 C32.8572027,89.81731 31.4578793,87.6182101 28.5446625,87.6182101 C25.6314018,87.6182101 23.3092884,88.8911297 23.3092884,91.1073547 C23.3092884,93.2245484 25.0531552,95.4007285 25.0531552,96.3533748 C25.0531552,98.0919577 21.6348832,98.8169618 17.6655699,98.8169618 C13.6962567,98.8169618 8.62714278,96.0283879 8.62714278,96.0283879 L8.62714278,96.0283879 Z" id="Fill-11" stroke="none" fill="#4D62DF" fill-rule="evenodd"></path>
                                <path d="M47.7797213,9.02352307 C47.7797213,9.02352307 44.7081427,14.4538106 44.7081427,18.9698966 C44.7081427,20.6845649 44.7296438,21.1321518 45.5857366,21.1321518 C48.1535763,21.1321518 48.7762292,19.6652779 51.1185273,19.6652779 C53.4608253,19.6652779 55.6780663,21.651093 55.6780663,23.9240556 C55.6780663,25.9531158 53.6876833,28.4838192 50.8512999,28.4838192 C48.0144777,28.4838192 47.804294,27.1864661 46.4295431,27.1864661 C45.0552311,27.1864661 44.8555785,28.7381004 44.8555785,30.8934363 C44.9130609,34.9381507 47.4102543,39.3556379 47.4102543,39.3556379 C47.4102543,39.3556379 56.0523601,36.6809283 60.5048326,36.6809283 C61.9282899,36.6809283 63.5764112,36.6688197 63.5764112,37.5652907 C63.5764112,39.7115451 61.4736963,41.3678325 61.4736963,43.2697521 C61.4736963,45.1716717 63.4956726,47.5116642 66.420693,47.5116642 C69.9591515,47.5116642 71.0478067,44.9333912 71.0478067,43.1257459 C71.0478067,40.2166479 69.6844646,38.6892309 69.6844646,37.4705839 C69.6844646,37.4705839 69.7638869,36.7047131 71.060093,36.6809283 C75.9381986,36.5909785 78.2620672,36.7077403 86.3938522,39.2950948 C86.3938522,39.2950948 89.0266338,34.5044023 89.0266338,30.2136233 C88.9897749,27.3750147 87.999849,26.397243 87.2696909,26.3319429 C86.3947298,26.260156 84.7224746,28.2766751 81.7219811,28.2766751 C80.3173921,28.2766751 76.7416358,27.5276699 76.7416358,23.6533412 C76.7034605,20.9600362 79.2677898,18.9698966 81.5670858,18.9698966 C84.010746,18.9456794 86.4465078,20.352875 87.0669667,20.352875 C87.6874255,20.352875 87.937101,19.4823511 87.937101,16.6835281 C87.937101,15.1548137 86.9287456,11.218212 85.8892357,9.27823672 C83.0041458,9.95415768 79.6337465,11.7976964 75.911432,11.7976964 C72.1886788,11.7976964 69.8582282,11.1857782 69.9047407,9.6670102 C69.9477428,8.25635495 71.9135531,7.38842575 71.9135531,4.69901283 C71.9135531,2.00916746 69.3707248,0.374502587 67.5255837,0.374502587 C65.6800038,0.374502587 62.2600204,1.25800003 62.2600204,4.26656181 C62.2161407,6.98451649 63.4561809,7.14582072 63.4561809,9.39197134 C63.4561809,11.028366 59.5978393,11.2666465 57.3893743,11.2666465 C51.6560535,11.2666465 47.7797213,9.02352307 47.7797213,9.02352307 L47.7797213,9.02352307 Z" id="Fill-13" stroke="none" fill="#3D53C0" fill-rule="evenodd"></path>
                                <path d="M47.7797213,9.02352307 C47.7797213,9.02352307 44.7081427,14.4538106 44.7081427,18.9698966 C44.7081427,20.6845649 44.7296438,21.1321518 45.5857366,21.1321518 C48.1535763,21.1321518 48.7762292,19.6652779 51.1185273,19.6652779 C53.4608253,19.6652779 55.6780663,21.651093 55.6780663,23.9240556 C55.6780663,25.9531158 53.6876833,28.4838192 50.8512999,28.4838192 C48.0144777,28.4838192 47.804294,27.1864661 46.4295431,27.1864661 C45.0552311,27.1864661 44.8555785,28.7381004 44.8555785,30.8934363 C44.9130609,34.9381507 47.4102543,39.3556379 47.4102543,39.3556379 C47.4102543,39.3556379 56.0523601,36.6809283 60.5048326,36.6809283 C61.9282899,36.6809283 63.5764112,36.6688197 63.5764112,37.5652907 C63.5764112,39.7115451 61.4736963,41.3678325 61.4736963,43.2697521 C61.4736963,45.1716717 63.4956726,47.5116642 66.420693,47.5116642 C69.9591515,47.5116642 71.0478067,44.9333912 71.0478067,43.1257459 C71.0478067,40.2166479 69.6844646,38.6892309 69.6844646,37.4705839 C69.6844646,37.4705839 69.7638869,36.7047131 71.060093,36.6809283 C75.9381986,36.5909785 78.2620672,36.7077403 86.3938522,39.2950948 C86.3938522,39.2950948 89.0266338,34.5044023 89.0266338,30.2136233 C88.9897749,27.3750147 87.999849,26.397243 87.2696909,26.3319429 C86.3947298,26.260156 84.7224746,28.2766751 81.7219811,28.2766751 C80.3173921,28.2766751 76.7416358,27.5276699 76.7416358,23.6533412 C76.7034605,20.9600362 79.2677898,18.9698966 81.5670858,18.9698966 C84.010746,18.9456794 86.4465078,20.352875 87.0669667,20.352875 C87.6874255,20.352875 87.937101,19.4823511 87.937101,16.6835281 C87.937101,15.1548137 86.9287456,11.218212 85.8892357,9.27823672 C83.0041458,9.95415768 79.6337465,11.7976964 75.911432,11.7976964 C72.1886788,11.7976964 69.8582282,11.1857782 69.9047407,9.6670102 C69.9477428,8.25635495 71.9135531,7.38842575 71.9135531,4.69901283 C71.9135531,2.00916746 69.3707248,0.374502587 67.5255837,0.374502587 C65.6800038,0.374502587 62.2600204,1.25800003 62.2600204,4.26656181 C62.2161407,6.98451649 63.4561809,7.14582072 63.4561809,9.39197134 C63.4561809,11.028366 59.5978393,11.2666465 57.3893743,11.2666465 C51.6560535,11.2666465 47.7797213,9.02352307 47.7797213,9.02352307 L47.7797213,9.02352307 Z" id="Stroke-14" stroke="none" fill="#3D53C0" fill-rule="evenodd"></path>
                                <path d="M47.7797213,68.6553192 C47.7797213,68.6553192 44.925786,72.2011581 44.8630381,76.4435027 C44.8630381,78.1584304 44.9038462,78.9894716 45.7595002,78.9894716 C48.0035078,79.032414 48.977637,77.4897314 51.3199351,77.4897314 C53.6617943,77.4897314 55.7403754,79.1721821 55.7403754,81.4452312 C55.7403754,83.4741184 53.9926472,86.224334 51.155825,86.224334 C48.3194416,86.224334 47.8696747,84.9269809 46.4949239,84.9269809 C45.1206119,84.9269809 44.9209593,86.9320833 44.9209593,89.0875057 C44.9209593,92.8420455 47.5133716,97.1582094 47.5133716,97.1582094 C47.5133716,97.1582094 54.4213518,93.687271 59.5706339,93.687271 C60.9940912,93.687271 63.5764112,93.8011786 63.5764112,94.6976928 C63.5764112,96.84425 61.4736963,98.5004509 61.4736963,100.402241 C61.4736963,102.304074 63.4956726,104.644066 66.420693,104.644066 C69.9591515,104.644066 71.0478067,102.06588 71.0478067,100.258062 C71.0478067,97.3492663 69.6844646,95.8215466 69.6844646,94.6030726 C69.6844646,94.6030726 69.9951329,93.6493883 71.291339,93.625517 C76.1694446,93.5356104 77.5428791,93.9461794 83.6131959,96.8931602 C83.6131959,96.8931602 87.7672866,93.1459288 87.7672866,88.8551498 C87.7304276,86.0166277 86.7409405,85.0389857 86.0103436,84.9736423 C85.1353825,84.901596 83.6136347,86.9182016 80.6131413,86.9182016 C79.2081134,86.9182016 76.7416358,85.2094579 76.7416358,82.5156772 C76.7034605,79.822156 79.2677898,77.8321029 81.5670858,77.8321029 C84.010746,77.8080154 85.7413611,79.2571588 86.36182,79.2571588 C86.9822789,79.2571588 88.6633099,76.8820945 88.6633099,74.0832282 C88.6633099,72.5544706 88.6290838,68.9540131 87.5895738,67.0142973 C84.578988,68.387978 82.0559056,69.4344229 75.5169536,69.4344229 C73.0381897,69.4344229 70.5409963,68.956651 70.5875087,67.4379263 C70.6305108,66.0270116 71.4747562,65.4667713 71.4747562,62.7771421 C71.4747562,60.08734 68.4417917,58.6779821 66.5962118,58.6779821 C64.7510706,58.6779821 61.6930947,59.3608223 61.6930947,62.3692976 C61.5403934,66.4388347 63.581238,66.7093761 63.581238,68.345468 C63.581238,69.98156 58.4249351,70.3271748 56.2164701,70.3271748 C50.4831493,70.3271748 47.7797213,68.6553192 47.7797213,68.6553192 L47.7797213,68.6553192 Z" id="Fill-15" stroke="none" fill="#FFFFFF" fill-rule="evenodd"></path>
                                <path d="M87.710243,66.9718306 C87.710243,66.9718306 84.836123,62.0746687 84.8865847,58.3190478 C84.8865847,56.6186503 85.6650104,55.1366407 87.0941721,55.1366407 C88.5233337,55.1366407 89.6655222,56.4352911 91.1697181,56.4352911 C93.5247412,56.4352911 94.9556581,54.9277668 94.9556581,52.5445292 C94.9556581,50.1612917 93.2755046,48.6144143 91.3434817,48.6144143 C89.7208106,48.6144143 87.4083507,50.2049692 85.7580354,50.2049692 C84.1072813,50.2049692 84.1998675,48.8574518 84.1998675,47.0792132 C84.1998675,42.8814111 86.3938522,39.2950948 86.3938522,39.2950948 C86.3938522,39.2950948 78.6214419,36.7003886 74.9851317,36.7003886 C71.3483826,36.7003886 69.7195684,36.4733518 69.7195684,37.5652907 C69.7195684,38.6567971 71.0359592,40.7200209 71.0359592,43.187154 C71.0359592,45.4908206 69.4769137,47.5116642 66.2091929,47.5116642 C62.8901328,47.5116642 61.4460521,44.7327339 61.4460521,43.187154 C61.4460521,41.6411416 63.5764112,39.4421281 63.5764112,37.5652907 C63.5764112,36.705578 61.9015233,36.7003886 59.6272387,36.7003886 C55.5872353,36.7003886 47.3343424,39.3050411 47.3343424,39.3050411 C47.3343424,39.3050411 49.0961122,45.4038979 49.0961122,48.3765663 C49.0961122,49.7556526 48.8552126,50.3282177 47.5282907,50.3282177 C46.2018075,50.3282177 44.8064333,49.0217832 43.1685798,49.0217832 C41.2435337,49.0217832 38.1259692,50.7087747 38.1259692,53.5659786 C38.1259692,55.9877043 40.6283404,57.8904888 42.5139386,57.8904888 C45.1653692,57.8904888 45.612942,56.1706311 47.7797213,56.1706311 C48.9649119,56.1706311 49.5349091,57.8744881 49.5349091,60.0527439 C49.5349091,62.2307403 47.7033707,68.6287234 47.7033707,68.6287234 C47.7033707,68.6287234 50.9987357,70.3652738 55.9948777,70.3652738 C61.9098604,70.3652738 63.6685586,69.1325721 63.6685586,68.1590816 C63.6685586,67.1856344 61.6746653,66.1634066 61.6746653,62.4310948 C61.6746653,59.5260186 64.2675164,58.6861987 66.3776909,58.6861987 C68.4878654,58.6861987 71.4747562,60.1232334 71.4747562,62.6473203 C71.4747562,65.1714937 70.3812742,67.0200489 70.5971623,67.8367326 C70.9008098,68.9866199 73.8762918,69.6455455 77.5556042,69.4345959 C82.3139182,69.1617626 86.2358853,68.0380818 87.710243,66.9718306 L87.710243,66.9718306 Z" id="Fill-17" stroke="none" fill="#4D62DF" fill-rule="evenodd"></path>
                            </g>
                        </g>
                    </g>
                </g>
            </g>
        </g>
    </g>
</svg>