<?xml version="1.0" encoding="UTF-8" standalone="no"?>
<svg width="16px" height="16px" viewBox="0 0 16 16" version="1.1" xmlns="http://www.w3.org/2000/svg" xmlns:xlink="http://www.w3.org/1999/xlink">
    <!-- Generator: Sketch 3.7 (28169) - http://www.bohemiancoding.com/sketch -->
    <title>Shape</title>
    <desc>Created with Sketch.</desc>
    <defs></defs>
    <g id="Page-1" stroke="none" stroke-width="1" fill="none" fill-rule="evenodd">
        <path d="M0,0 L0,16 L16,16 L16,15 L1,15 L1,13 L2,13 L2,12 L1,12 L1,10 L2,10 L2,9 L1,9 L1,7 L2,7 L2,6 L1,6 L1,4 L2,4 L2,3 L1,3 L1,1 L2,1 L2,0 L0,0 L0,0 Z M8,3 L8,14 L11,14 L11,3 L8,3 L8,3 Z M12,5 L12,14 L15,14 L15,5 L12,5 L12,5 Z M4,7 L4,14 L7,14 L7,7 L4,7 L4,7 Z" id="Shape" fill="#000000"></path>
    </g>
</svg>