<?xml version="1.0" encoding="UTF-8" standalone="no"?>
<svg width="16px" height="16px" viewBox="0 0 16 16" version="1.1" xmlns="http://www.w3.org/2000/svg" xmlns:xlink="http://www.w3.org/1999/xlink">
    <!-- Generator: Sketch 3.7 (28169) - http://www.bohemiancoding.com/sketch -->
    <title>Shape</title>
    <desc>Created with Sketch.</desc>
    <defs></defs>
    <g id="Page-1" stroke="none" stroke-width="1" fill="none" fill-rule="evenodd">
        <path d="M6.344,0 L5.281,1 C5.091,0.986 4.911,1.017 4.718,1.031 L4.718,1 L3.655,0.094 L2.467,0.563 L2.373,1.969 C2.227,2.095 2.092,2.232 1.967,2.375 L0.498,2.406 L-0.002,3.656 L0.998,4.719 C0.984,4.909 1.015,5.089 1.029,5.282 L0.998,5.282 L0.092,6.345 L0.561,7.501 L1.967,7.626 C2.093,7.772 2.23,7.907 2.373,8.032 L2.404,9.501 L3.654,10.001 L4.717,8.97 C4.907,8.984 5.087,8.984 5.28,8.97 L6.343,9.908 L7.499,9.439 L7.624,8.033 C7.764,7.911 7.879,7.764 7.999,7.627 L9.499,7.596 L9.999,6.346 L8.968,5.283 C8.982,5.093 8.981,4.913 8.968,4.72 L9.906,3.657 L9.437,2.469 L8.031,2.375 C7.905,2.229 7.768,2.094 7.625,1.969 L7.594,0.5 L6.344,1.11022302e-15 L6.344,0 Z M5,3.094 C5.738,3.1 6.45,3.557 6.75,4.282 C7.151,5.249 6.685,6.351 5.719,6.751 C4.752,7.151 3.65,6.686 3.25,5.72 C2.85,4.753 3.315,3.651 4.281,3.251 C4.523,3.151 4.754,3.093 5,3.095 L5,3.094 Z M11.5,8 L11,9 C10.855,9.048 10.729,9.089 10.594,9.156 L9.5,8.75 L8.75,9.5 L9.156,10.594 C9.088,10.729 9.048,10.855 9,11 L8,11.5 L8,12.5 L9,13 C9.048,13.145 9.089,13.271 9.156,13.406 L8.75,14.5 L9.5,15.25 L10.594,14.844 C10.729,14.912 10.855,14.952 11,15 L11.5,16 L12.5,16 L13,15 C13.145,14.952 13.271,14.911 13.406,14.844 L14.5,15.25 L15.25,14.5 L14.844,13.406 C14.912,13.271 14.952,13.145 15,13 L16,12.5 L16,11.5 L15,11 C14.952,10.855 14.911,10.729 14.844,10.594 L15.25,9.5 L14.5,8.75 L13.406,9.156 C13.271,9.088 13.145,9.048 13,9 L12.5,8 L11.5,8 L11.5,8 Z M12,10.5 C12.828,10.5 13.5,11.172 13.5,12 C13.5,12.828 12.828,13.5 12,13.5 C11.172,13.5 10.5,12.828 10.5,12 C10.5,11.172 11.172,10.5 12,10.5 L12,10.5 Z" id="Shape" fill="#000000"></path>
    </g>
</svg>