<?xml version="1.0" encoding="UTF-8" standalone="no"?>
<svg width="128px" height="78px" viewBox="0 0 128 78" version="1.1" xmlns="http://www.w3.org/2000/svg" xmlns:xlink="http://www.w3.org/1999/xlink">
    <!-- Generator: Sketch 3.7 (28169) - http://www.bohemiancoding.com/sketch -->
    <title>Shape</title>
    <desc>Created with Sketch.</desc>
    <defs></defs>
    <g id="Page-1" stroke="none" stroke-width="1" fill="none" fill-rule="evenodd" fill-opacity="0.88">
        <path d="M120,0.344 L117.156,3.157 L91.687,28.626 L74.499,14.876 L71.718,12.626 L69.155,15.157 L49.655,34.657 L34.467,22.844 L31.654,20.688 L29.154,23.157 L5.154,47.157 L2.341,50.001 L7.997,55.657 L10.841,52.844 L32.341,31.344 L47.529,43.157 L50.342,45.313 L52.842,42.844 L72.311,23.375 L89.499,37.125 L92.28,39.375 L94.843,36.844 L122.843,8.844 L125.656,6 L120,0.344 L120,0.344 Z M0,76 L0,78 L128,78 L128,76 L0,76 L0,76 Z" id="Shape" fill="#0B1C54"></path>
    </g>
</svg>