<?xml version="1.0" encoding="UTF-8" standalone="no"?>
<svg width="20px" height="20px" viewBox="0 0 20 20" version="1.1" xmlns="http://www.w3.org/2000/svg" xmlns:xlink="http://www.w3.org/1999/xlink">
    <!-- Generator: Sketch 3.6.1 (26313) - http://www.bohemiancoding.com/sketch -->
    <title>Shape</title>
    <desc>Created with Sketch.</desc>
    <defs></defs>
    <g id="Page-1" stroke="none" stroke-width="1" fill="none" fill-rule="evenodd">
        <g id="desktop/dashboard" transform="translate(-1205.000000, -10.000000)" fill="#3152BC">
            <g id="Group" transform="translate(251.000000, 0.000000)">
                <path d="M964,10 C958.5,10 954,14.5 954,20 C954,25.5 958.5,30 964,30 C969.5,30 974,25.5 974,20 C974,14.5 969.5,10 964,10 L964,10 Z M964,13 C965.7,13 967,14.3 967,16 C967,17.7 965.7,19 964,19 C962.3,19 961,17.7 961,16 C961,14.3 962.3,13 964,13 L964,13 Z M964,27.2 C961.5,27.2 959.3,25.9 958,24 C958,22 962,20.9 964,20.9 C966,20.9 970,22 970,24 C968.7,25.9 966.5,27.2 964,27.2 L964,27.2 Z" id="Shape"></path>
            </g>
        </g>
    </g>
</svg>