<?xml version="1.0" encoding="UTF-8" standalone="no"?>
<svg width="89px" height="89px" viewBox="0 0 89 89" version="1.1" xmlns="http://www.w3.org/2000/svg" xmlns:xlink="http://www.w3.org/1999/xlink">
    <!-- Generator: Sketch 3.6.1 (26313) - http://www.bohemiancoding.com/sketch -->
    <title>user-2</title>
    <desc>Created with Sketch.</desc>
    <defs></defs>
    <g id="Page-1" stroke="none" stroke-width="1" fill="none" fill-rule="evenodd">
        <g id="desktop/dashboard" transform="translate(-530.000000, -410.000000)">
            <g id="opening-box" transform="translate(290.000000, 92.000000)">
                <g id="students-group" transform="translate(52.000000, 284.000000)">
                    <g id="user-2" transform="translate(190.000000, 36.000000)">
                        <circle id="Oval-1" stroke="#E1E4EB" stroke-width="3" fill="#717480" cx="42.5" cy="42.5" r="42.5"></circle>
                        <path d="M43,8 C23.75,8 8,23.75 8,43 C8,62.25 23.75,78 43,78 C62.25,78 78,62.25 78,43 C78,23.75 62.25,8 43,8 L43,8 Z M43,18.5 C48.95,18.5 53.5,23.05 53.5,29 C53.5,34.95 48.95,39.5 43,39.5 C37.05,39.5 32.5,34.95 32.5,29 C32.5,23.05 37.05,18.5 43,18.5 L43,18.5 Z M43,68.2 C34.25,68.2 26.55,63.65 22,57 C22,50 36,46.15 43,46.15 C50,46.15 64,50 64,57 C59.45,63.65 51.75,68.2 43,68.2 L43,68.2 Z" id="Shape" fill-opacity="0.0686424366" fill="#000000"></path>
                    </g>
                </g>
            </g>
        </g>
    </g>
</svg>